<mxfile host="app.diagrams.net" modified="2024-02-22T09:53:24.407Z" agent="Mozilla/5.0 (Windows NT 10.0; Win64; x64) AppleWebKit/537.36 (KHTML, like Gecko) Chrome/121.0.0.0 Safari/537.36 Edg/121.0.0.0" etag="66k0A2huYFxDTEcfjwIc" version="23.1.5" type="github">
  <diagram name="Page-1" id="74e2e168-ea6b-b213-b513-2b3c1d86103e">
    <mxGraphModel dx="881" dy="491" grid="1" gridSize="10" guides="1" tooltips="1" connect="1" arrows="1" fold="1" page="1" pageScale="1" pageWidth="1100" pageHeight="850" background="none" math="0" shadow="0">
      <root>
        <mxCell id="0" />
        <mxCell id="1" parent="0" />
        <mxCell id="77e6c97f196da883-1" value="&lt;font style=&quot;font-size: 15px;&quot;&gt;919是否需要人工审核&lt;/font&gt;" style="swimlane;html=1;childLayout=stackLayout;startSize=20;rounded=0;shadow=0;labelBackgroundColor=none;strokeWidth=1;fontFamily=Verdana;fontSize=8;align=center;" parent="1" vertex="1">
          <mxGeometry x="70" y="10" width="840" height="840" as="geometry" />
        </mxCell>
        <mxCell id="77e6c97f196da883-2" value="判断是否需要人工审核" style="swimlane;html=1;startSize=20;" parent="77e6c97f196da883-1" vertex="1">
          <mxGeometry y="20" width="160" height="820" as="geometry" />
        </mxCell>
        <mxCell id="77e6c97f196da883-8" value="是否需要人工审核" style="rounded=1;whiteSpace=wrap;html=1;shadow=0;labelBackgroundColor=none;strokeWidth=1;fontFamily=Verdana;fontSize=8;align=center;fillColor=none;" parent="77e6c97f196da883-2" vertex="1">
          <mxGeometry x="30" y="290" width="100" height="60" as="geometry" />
        </mxCell>
        <mxCell id="77e6c97f196da883-3" value="mut_info" style="swimlane;html=1;startSize=20;" parent="77e6c97f196da883-1" vertex="1">
          <mxGeometry x="160" y="20" width="200" height="820" as="geometry" />
        </mxCell>
        <mxCell id="77e6c97f196da883-11" value="verify=yes" style="rounded=1;whiteSpace=wrap;html=1;shadow=0;labelBackgroundColor=none;strokeWidth=1;fontFamily=Verdana;fontSize=8;align=center;fillColor=none;" parent="77e6c97f196da883-3" vertex="1">
          <mxGeometry x="40" y="50" width="100" height="60" as="geometry" />
        </mxCell>
        <mxCell id="QHpl8Yz81FgTYKZgwHpx-25" style="edgeStyle=orthogonalEdgeStyle;rounded=0;orthogonalLoop=1;jettySize=auto;html=1;exitX=0;exitY=0.5;exitDx=0;exitDy=0;" parent="77e6c97f196da883-3" source="77e6c97f196da883-12" edge="1">
          <mxGeometry relative="1" as="geometry">
            <mxPoint x="-20" y="320" as="targetPoint" />
          </mxGeometry>
        </mxCell>
        <mxCell id="77e6c97f196da883-12" value="mutNet=True/Check/False" style="rounded=1;whiteSpace=wrap;html=1;shadow=0;labelBackgroundColor=none;strokeWidth=1;fontFamily=Verdana;fontSize=8;align=center;fillColor=none;" parent="77e6c97f196da883-3" vertex="1">
          <mxGeometry x="40" y="290" width="100" height="60" as="geometry" />
        </mxCell>
        <mxCell id="gROawkm3clonCkUMPsZn-80" style="edgeStyle=orthogonalEdgeStyle;rounded=0;orthogonalLoop=1;jettySize=auto;html=1;" parent="77e6c97f196da883-3" source="gROawkm3clonCkUMPsZn-16" edge="1">
          <mxGeometry relative="1" as="geometry">
            <mxPoint x="90" y="280" as="targetPoint" />
          </mxGeometry>
        </mxCell>
        <mxCell id="gROawkm3clonCkUMPsZn-16" value="varType=./check" style="rounded=1;whiteSpace=wrap;html=1;shadow=0;labelBackgroundColor=none;strokeWidth=1;fontFamily=Verdana;fontSize=8;align=center;fillColor=none;" parent="77e6c97f196da883-3" vertex="1">
          <mxGeometry x="40" y="160" width="100" height="60" as="geometry" />
        </mxCell>
        <mxCell id="gROawkm3clonCkUMPsZn-81" value="？" style="text;html=1;align=center;verticalAlign=middle;resizable=0;points=[];autosize=1;strokeColor=none;fillColor=none;" parent="77e6c97f196da883-3" vertex="1">
          <mxGeometry x="96" y="235" width="40" height="30" as="geometry" />
        </mxCell>
        <mxCell id="77e6c97f196da883-4" value="TAG列标签" style="swimlane;html=1;startSize=20;" parent="77e6c97f196da883-1" vertex="1">
          <mxGeometry x="360" y="20" width="160" height="820" as="geometry" />
        </mxCell>
        <mxCell id="gROawkm3clonCkUMPsZn-7" value="Passport=Pass/False" style="rounded=1;whiteSpace=wrap;html=1;shadow=0;labelBackgroundColor=none;strokeWidth=1;fontFamily=Verdana;fontSize=8;align=center;fillColor=none;" parent="77e6c97f196da883-4" vertex="1">
          <mxGeometry x="30" y="290" width="100" height="60" as="geometry" />
        </mxCell>
        <mxCell id="gROawkm3clonCkUMPsZn-6" value="tissue=&lt;br&gt;Positive/Warning/Negative" style="rounded=1;whiteSpace=wrap;html=1;shadow=0;labelBackgroundColor=none;strokeWidth=1;fontFamily=Verdana;fontSize=8;align=center;fillColor=none;" parent="77e6c97f196da883-4" vertex="1">
          <mxGeometry x="30" y="380" width="100" height="60" as="geometry" />
        </mxCell>
        <mxCell id="Gz6j1d04SvAU4OI1xCj5-19" style="edgeStyle=orthogonalEdgeStyle;rounded=0;orthogonalLoop=1;jettySize=auto;html=1;exitX=0;exitY=0.5;exitDx=0;exitDy=0;" parent="77e6c97f196da883-4" source="gROawkm3clonCkUMPsZn-8" edge="1">
          <mxGeometry relative="1" as="geometry">
            <mxPoint x="-110" y="350" as="targetPoint" />
          </mxGeometry>
        </mxCell>
        <mxCell id="gROawkm3clonCkUMPsZn-8" value="repeat=no/keep/filter" style="rounded=1;whiteSpace=wrap;html=1;shadow=0;labelBackgroundColor=none;strokeWidth=1;fontFamily=Verdana;fontSize=8;align=center;fillColor=none;fontColor=#333333;strokeColor=#666666;" parent="77e6c97f196da883-4" vertex="1">
          <mxGeometry x="30" y="660" width="100" height="60" as="geometry" />
        </mxCell>
        <mxCell id="gROawkm3clonCkUMPsZn-21" value="污染验证" style="rounded=1;whiteSpace=wrap;html=1;shadow=0;labelBackgroundColor=none;strokeWidth=1;fontFamily=Verdana;fontSize=8;align=center;fillColor=none;" parent="77e6c97f196da883-4" vertex="1">
          <mxGeometry x="40" y="30" width="100" height="60" as="geometry" />
        </mxCell>
        <mxCell id="gROawkm3clonCkUMPsZn-22" value="灰区验证" style="rounded=1;whiteSpace=wrap;html=1;shadow=0;labelBackgroundColor=none;strokeWidth=1;fontFamily=Verdana;fontSize=8;align=center;fillColor=none;" parent="77e6c97f196da883-4" vertex="1">
          <mxGeometry x="40" y="110" width="100" height="60" as="geometry" />
        </mxCell>
        <mxCell id="gROawkm3clonCkUMPsZn-23" style="edgeStyle=orthogonalEdgeStyle;rounded=0;orthogonalLoop=1;jettySize=auto;html=1;exitX=0.5;exitY=1;exitDx=0;exitDy=0;" parent="77e6c97f196da883-4" source="gROawkm3clonCkUMPsZn-22" target="gROawkm3clonCkUMPsZn-22" edge="1">
          <mxGeometry relative="1" as="geometry" />
        </mxCell>
        <mxCell id="77e6c97f196da883-5" value="区分是否串联重复" style="swimlane;html=1;startSize=20;" parent="77e6c97f196da883-1" vertex="1">
          <mxGeometry x="520" y="20" width="160" height="820" as="geometry" />
        </mxCell>
        <mxCell id="77e6c97f196da883-14" value="非串联重复位点&lt;br&gt;tissue=&lt;br style=&quot;border-color: var(--border-color);&quot;&gt;Positive/Warning/Negative" style="rounded=1;whiteSpace=wrap;html=1;shadow=0;labelBackgroundColor=none;strokeWidth=1;fontFamily=Verdana;fontSize=8;align=center;fillColor=none;" parent="77e6c97f196da883-5" vertex="1">
          <mxGeometry x="30" y="380" width="100" height="60" as="geometry" />
        </mxCell>
        <mxCell id="77e6c97f196da883-19" value="串联重复位点&lt;br&gt;repeat=keep/filter" style="rounded=1;whiteSpace=wrap;html=1;shadow=0;labelBackgroundColor=none;strokeWidth=1;fontFamily=Verdana;fontSize=8;align=center;fillColor=none;" parent="77e6c97f196da883-5" vertex="1">
          <mxGeometry x="29.5" y="740" width="100" height="60" as="geometry" />
        </mxCell>
        <mxCell id="gROawkm3clonCkUMPsZn-14" value="非串联重复位点&lt;br&gt;repeat=no" style="rounded=1;whiteSpace=wrap;html=1;shadow=0;labelBackgroundColor=none;strokeWidth=1;fontFamily=Verdana;fontSize=8;align=center;fillColor=none;" parent="77e6c97f196da883-5" vertex="1">
          <mxGeometry x="30.5" y="660" width="100" height="60" as="geometry" />
        </mxCell>
        <mxCell id="gROawkm3clonCkUMPsZn-15" value="串联重复位点&lt;br&gt;tissue=&lt;br style=&quot;border-color: var(--border-color);&quot;&gt;Positive/Warning/Negative" style="rounded=1;whiteSpace=wrap;html=1;shadow=0;labelBackgroundColor=none;strokeWidth=1;fontFamily=Verdana;fontSize=8;align=center;fillColor=none;" parent="77e6c97f196da883-5" vertex="1">
          <mxGeometry x="30" y="470" width="100" height="60" as="geometry" />
        </mxCell>
        <mxCell id="77e6c97f196da883-7" value="Lane 6" style="swimlane;html=1;startSize=20;" parent="77e6c97f196da883-1" vertex="1">
          <mxGeometry x="680" y="20" width="160" height="820" as="geometry" />
        </mxCell>
        <mxCell id="gROawkm3clonCkUMPsZn-48" value="TISSUE-FILTER=&lt;br&gt;Positive/Warning/Negative" style="rounded=1;whiteSpace=wrap;html=1;shadow=0;labelBackgroundColor=none;strokeWidth=1;fontFamily=Verdana;fontSize=8;align=center;fillColor=none;" parent="77e6c97f196da883-7" vertex="1">
          <mxGeometry x="30" y="380" width="100" height="60" as="geometry" />
        </mxCell>
        <mxCell id="gROawkm3clonCkUMPsZn-49" value="TISSUE-FILTER=&lt;br style=&quot;border-color: var(--border-color);&quot;&gt;Positive/Warning/Negative" style="rounded=1;whiteSpace=wrap;html=1;shadow=0;labelBackgroundColor=none;strokeWidth=1;fontFamily=Verdana;fontSize=8;align=center;fillColor=none;" parent="77e6c97f196da883-7" vertex="1">
          <mxGeometry x="30" y="470" width="100" height="60" as="geometry" />
        </mxCell>
        <mxCell id="gROawkm3clonCkUMPsZn-77" value="MLP_Tag+Freq825" style="rounded=1;whiteSpace=wrap;html=1;shadow=0;labelBackgroundColor=none;strokeWidth=1;fontFamily=Verdana;fontSize=8;align=center;fillColor=none;" parent="77e6c97f196da883-7" vertex="1">
          <mxGeometry x="30" y="560" width="100" height="60" as="geometry" />
        </mxCell>
        <mxCell id="Gz6j1d04SvAU4OI1xCj5-6" style="edgeStyle=orthogonalEdgeStyle;rounded=0;orthogonalLoop=1;jettySize=auto;html=1;exitX=0;exitY=0.5;exitDx=0;exitDy=0;" parent="77e6c97f196da883-7" edge="1">
          <mxGeometry relative="1" as="geometry">
            <mxPoint x="-30" y="770" as="targetPoint" />
            <mxPoint x="30" y="770" as="sourcePoint" />
          </mxGeometry>
        </mxCell>
        <mxCell id="Gz6j1d04SvAU4OI1xCj5-10" value="MLP_Tag+Freq825" style="rounded=1;whiteSpace=wrap;html=1;shadow=0;labelBackgroundColor=none;strokeWidth=1;fontFamily=Verdana;fontSize=8;align=center;fillColor=none;" parent="77e6c97f196da883-7" vertex="1">
          <mxGeometry x="30" y="740" width="100" height="60" as="geometry" />
        </mxCell>
        <mxCell id="gROawkm3clonCkUMPsZn-45" style="edgeStyle=orthogonalEdgeStyle;rounded=0;orthogonalLoop=1;jettySize=auto;html=1;" parent="77e6c97f196da883-1" source="gROawkm3clonCkUMPsZn-21" target="77e6c97f196da883-11" edge="1">
          <mxGeometry relative="1" as="geometry">
            <mxPoint x="310" y="80" as="targetPoint" />
            <Array as="points">
              <mxPoint x="340" y="80" />
              <mxPoint x="340" y="100" />
            </Array>
          </mxGeometry>
        </mxCell>
        <mxCell id="gROawkm3clonCkUMPsZn-46" style="edgeStyle=orthogonalEdgeStyle;rounded=0;orthogonalLoop=1;jettySize=auto;html=1;entryX=1;entryY=0.5;entryDx=0;entryDy=0;" parent="77e6c97f196da883-1" source="gROawkm3clonCkUMPsZn-22" target="77e6c97f196da883-11" edge="1">
          <mxGeometry relative="1" as="geometry">
            <Array as="points">
              <mxPoint x="340" y="140" />
              <mxPoint x="340" y="100" />
            </Array>
          </mxGeometry>
        </mxCell>
        <mxCell id="Gz6j1d04SvAU4OI1xCj5-1" style="edgeStyle=orthogonalEdgeStyle;rounded=0;orthogonalLoop=1;jettySize=auto;html=1;entryX=1;entryY=0.5;entryDx=0;entryDy=0;" parent="77e6c97f196da883-1" source="77e6c97f196da883-14" target="gROawkm3clonCkUMPsZn-6" edge="1">
          <mxGeometry relative="1" as="geometry" />
        </mxCell>
        <mxCell id="Gz6j1d04SvAU4OI1xCj5-2" style="edgeStyle=orthogonalEdgeStyle;rounded=0;orthogonalLoop=1;jettySize=auto;html=1;entryX=0.5;entryY=1;entryDx=0;entryDy=0;" parent="77e6c97f196da883-1" source="gROawkm3clonCkUMPsZn-15" target="gROawkm3clonCkUMPsZn-6" edge="1">
          <mxGeometry relative="1" as="geometry" />
        </mxCell>
        <mxCell id="Gz6j1d04SvAU4OI1xCj5-3" style="edgeStyle=orthogonalEdgeStyle;rounded=0;orthogonalLoop=1;jettySize=auto;html=1;exitX=0;exitY=0.5;exitDx=0;exitDy=0;" parent="77e6c97f196da883-1" source="gROawkm3clonCkUMPsZn-14" target="gROawkm3clonCkUMPsZn-8" edge="1">
          <mxGeometry relative="1" as="geometry" />
        </mxCell>
        <mxCell id="Gz6j1d04SvAU4OI1xCj5-4" style="edgeStyle=orthogonalEdgeStyle;rounded=0;orthogonalLoop=1;jettySize=auto;html=1;exitX=0;exitY=0.5;exitDx=0;exitDy=0;entryX=0.5;entryY=1;entryDx=0;entryDy=0;" parent="77e6c97f196da883-1" source="77e6c97f196da883-19" target="gROawkm3clonCkUMPsZn-8" edge="1">
          <mxGeometry relative="1" as="geometry" />
        </mxCell>
        <mxCell id="Gz6j1d04SvAU4OI1xCj5-5" style="edgeStyle=orthogonalEdgeStyle;rounded=0;orthogonalLoop=1;jettySize=auto;html=1;entryX=1;entryY=0.5;entryDx=0;entryDy=0;" parent="77e6c97f196da883-1" source="gROawkm3clonCkUMPsZn-48" target="77e6c97f196da883-14" edge="1">
          <mxGeometry relative="1" as="geometry" />
        </mxCell>
        <mxCell id="Gz6j1d04SvAU4OI1xCj5-8" style="edgeStyle=orthogonalEdgeStyle;rounded=0;orthogonalLoop=1;jettySize=auto;html=1;entryX=0.5;entryY=1;entryDx=0;entryDy=0;" parent="77e6c97f196da883-1" source="gROawkm3clonCkUMPsZn-77" target="gROawkm3clonCkUMPsZn-15" edge="1">
          <mxGeometry relative="1" as="geometry" />
        </mxCell>
        <mxCell id="Gz6j1d04SvAU4OI1xCj5-9" style="edgeStyle=orthogonalEdgeStyle;rounded=0;orthogonalLoop=1;jettySize=auto;html=1;exitX=0;exitY=0.5;exitDx=0;exitDy=0;entryX=1;entryY=0.5;entryDx=0;entryDy=0;" parent="77e6c97f196da883-1" source="gROawkm3clonCkUMPsZn-49" target="gROawkm3clonCkUMPsZn-15" edge="1">
          <mxGeometry relative="1" as="geometry" />
        </mxCell>
        <mxCell id="Gz6j1d04SvAU4OI1xCj5-17" style="edgeStyle=orthogonalEdgeStyle;rounded=0;orthogonalLoop=1;jettySize=auto;html=1;exitX=0;exitY=0.5;exitDx=0;exitDy=0;entryX=1;entryY=0.5;entryDx=0;entryDy=0;" parent="77e6c97f196da883-1" source="gROawkm3clonCkUMPsZn-7" target="77e6c97f196da883-12" edge="1">
          <mxGeometry relative="1" as="geometry">
            <Array as="points">
              <mxPoint x="390" y="340" />
            </Array>
          </mxGeometry>
        </mxCell>
        <mxCell id="Gz6j1d04SvAU4OI1xCj5-18" style="edgeStyle=orthogonalEdgeStyle;rounded=0;orthogonalLoop=1;jettySize=auto;html=1;exitX=0;exitY=0.5;exitDx=0;exitDy=0;entryX=0.5;entryY=1;entryDx=0;entryDy=0;" parent="77e6c97f196da883-1" source="gROawkm3clonCkUMPsZn-6" target="77e6c97f196da883-12" edge="1">
          <mxGeometry relative="1" as="geometry" />
        </mxCell>
        <mxCell id="Gz6j1d04SvAU4OI1xCj5-11" style="edgeStyle=orthogonalEdgeStyle;rounded=0;orthogonalLoop=1;jettySize=auto;html=1;" parent="1" edge="1">
          <mxGeometry relative="1" as="geometry">
            <mxPoint x="321" y="184" as="targetPoint" />
            <mxPoint x="320" y="146" as="sourcePoint" />
          </mxGeometry>
        </mxCell>
        <mxCell id="_ojp3V_NxjRKTb740ofn-3" value="" style="shape=table;startSize=0;container=1;collapsible=0;childLayout=tableLayout;fontSize=16;" parent="1" vertex="1">
          <mxGeometry x="90" y="1150" width="800" height="2700" as="geometry" />
        </mxCell>
        <mxCell id="_ojp3V_NxjRKTb740ofn-4" value="" style="shape=tableRow;horizontal=0;startSize=0;swimlaneHead=0;swimlaneBody=0;strokeColor=inherit;top=0;left=0;bottom=0;right=0;collapsible=0;dropTarget=0;fillColor=none;points=[[0,0.5],[1,0.5]];portConstraint=eastwest;fontSize=16;" parent="_ojp3V_NxjRKTb740ofn-3" vertex="1">
          <mxGeometry width="800" height="40" as="geometry" />
        </mxCell>
        <mxCell id="_ojp3V_NxjRKTb740ofn-5" value="标签" style="shape=partialRectangle;html=1;whiteSpace=wrap;connectable=0;strokeColor=inherit;overflow=hidden;fillColor=none;top=0;left=0;bottom=0;right=0;pointerEvents=1;fontSize=16;" parent="_ojp3V_NxjRKTb740ofn-4" vertex="1">
          <mxGeometry width="190" height="40" as="geometry">
            <mxRectangle width="190" height="40" as="alternateBounds" />
          </mxGeometry>
        </mxCell>
        <mxCell id="_ojp3V_NxjRKTb740ofn-6" value="含义/条件" style="shape=partialRectangle;html=1;whiteSpace=wrap;connectable=0;strokeColor=inherit;overflow=hidden;fillColor=none;top=0;left=0;bottom=0;right=0;pointerEvents=1;fontSize=16;" parent="_ojp3V_NxjRKTb740ofn-4" vertex="1">
          <mxGeometry x="190" width="410" height="40" as="geometry">
            <mxRectangle width="410" height="40" as="alternateBounds" />
          </mxGeometry>
        </mxCell>
        <mxCell id="_ojp3V_NxjRKTb740ofn-7" value="对人工审核的指导意义" style="shape=partialRectangle;html=1;whiteSpace=wrap;connectable=0;strokeColor=inherit;overflow=hidden;fillColor=none;top=0;left=0;bottom=0;right=0;pointerEvents=1;fontSize=16;" parent="_ojp3V_NxjRKTb740ofn-4" vertex="1">
          <mxGeometry x="600" width="200" height="40" as="geometry">
            <mxRectangle width="200" height="40" as="alternateBounds" />
          </mxGeometry>
        </mxCell>
        <mxCell id="QHpl8Yz81FgTYKZgwHpx-1" value="" style="shape=tableRow;horizontal=0;startSize=0;swimlaneHead=0;swimlaneBody=0;strokeColor=inherit;top=0;left=0;bottom=0;right=0;collapsible=0;dropTarget=0;fillColor=none;points=[[0,0.5],[1,0.5]];portConstraint=eastwest;fontSize=16;" parent="_ojp3V_NxjRKTb740ofn-3" vertex="1">
          <mxGeometry y="40" width="800" height="40" as="geometry" />
        </mxCell>
        <mxCell id="QHpl8Yz81FgTYKZgwHpx-2" value="&lt;b&gt;1. mut_info列&lt;/b&gt;" style="shape=partialRectangle;html=1;whiteSpace=wrap;connectable=0;strokeColor=inherit;overflow=hidden;fillColor=none;top=0;left=0;bottom=0;right=0;pointerEvents=1;fontSize=16;" parent="QHpl8Yz81FgTYKZgwHpx-1" vertex="1">
          <mxGeometry width="190" height="40" as="geometry">
            <mxRectangle width="190" height="40" as="alternateBounds" />
          </mxGeometry>
        </mxCell>
        <mxCell id="QHpl8Yz81FgTYKZgwHpx-3" value="" style="shape=partialRectangle;html=1;whiteSpace=wrap;connectable=0;strokeColor=inherit;overflow=hidden;fillColor=none;top=0;left=0;bottom=0;right=0;pointerEvents=1;fontSize=16;" parent="QHpl8Yz81FgTYKZgwHpx-1" vertex="1">
          <mxGeometry x="190" width="410" height="40" as="geometry">
            <mxRectangle width="410" height="40" as="alternateBounds" />
          </mxGeometry>
        </mxCell>
        <mxCell id="QHpl8Yz81FgTYKZgwHpx-4" value="" style="shape=partialRectangle;html=1;whiteSpace=wrap;connectable=0;strokeColor=inherit;overflow=hidden;fillColor=none;top=0;left=0;bottom=0;right=0;pointerEvents=1;fontSize=16;" parent="QHpl8Yz81FgTYKZgwHpx-1" vertex="1">
          <mxGeometry x="600" width="200" height="40" as="geometry">
            <mxRectangle width="200" height="40" as="alternateBounds" />
          </mxGeometry>
        </mxCell>
        <mxCell id="_ojp3V_NxjRKTb740ofn-8" value="" style="shape=tableRow;horizontal=0;startSize=0;swimlaneHead=0;swimlaneBody=0;strokeColor=inherit;top=0;left=0;bottom=0;right=0;collapsible=0;dropTarget=0;fillColor=none;points=[[0,0.5],[1,0.5]];portConstraint=eastwest;fontSize=16;" parent="_ojp3V_NxjRKTb740ofn-3" vertex="1">
          <mxGeometry y="80" width="800" height="40" as="geometry" />
        </mxCell>
        <mxCell id="_ojp3V_NxjRKTb740ofn-9" value="mutNet" style="shape=partialRectangle;html=1;whiteSpace=wrap;connectable=0;strokeColor=inherit;overflow=hidden;fillColor=none;top=0;left=0;bottom=0;right=0;pointerEvents=1;fontSize=16;" parent="_ojp3V_NxjRKTb740ofn-8" vertex="1">
          <mxGeometry width="190" height="40" as="geometry">
            <mxRectangle width="190" height="40" as="alternateBounds" />
          </mxGeometry>
        </mxCell>
        <mxCell id="_ojp3V_NxjRKTb740ofn-10" value="=False/Check/True，&lt;br&gt;整合了对TISSUE-filter、verify和varType的综合结果" style="shape=partialRectangle;html=1;whiteSpace=wrap;connectable=0;strokeColor=inherit;overflow=hidden;fillColor=none;top=0;left=0;bottom=0;right=0;pointerEvents=1;fontSize=16;" parent="_ojp3V_NxjRKTb740ofn-8" vertex="1">
          <mxGeometry x="190" width="410" height="40" as="geometry">
            <mxRectangle width="410" height="40" as="alternateBounds" />
          </mxGeometry>
        </mxCell>
        <mxCell id="_ojp3V_NxjRKTb740ofn-11" value="mutNet=Fasle/True不需要人工审核" style="shape=partialRectangle;html=1;whiteSpace=wrap;connectable=0;strokeColor=inherit;overflow=hidden;fillColor=none;top=0;left=0;bottom=0;right=0;pointerEvents=1;fontSize=16;" parent="_ojp3V_NxjRKTb740ofn-8" vertex="1">
          <mxGeometry x="600" width="200" height="40" as="geometry">
            <mxRectangle width="200" height="40" as="alternateBounds" />
          </mxGeometry>
        </mxCell>
        <mxCell id="_ojp3V_NxjRKTb740ofn-12" value="" style="shape=tableRow;horizontal=0;startSize=0;swimlaneHead=0;swimlaneBody=0;strokeColor=inherit;top=0;left=0;bottom=0;right=0;collapsible=0;dropTarget=0;fillColor=none;points=[[0,0.5],[1,0.5]];portConstraint=eastwest;fontSize=16;" parent="_ojp3V_NxjRKTb740ofn-3" vertex="1">
          <mxGeometry y="120" width="800" height="70" as="geometry" />
        </mxCell>
        <mxCell id="_ojp3V_NxjRKTb740ofn-13" value="verify" style="shape=partialRectangle;html=1;whiteSpace=wrap;connectable=0;strokeColor=inherit;overflow=hidden;fillColor=none;top=0;left=0;bottom=0;right=0;pointerEvents=1;fontSize=16;" parent="_ojp3V_NxjRKTb740ofn-12" vertex="1">
          <mxGeometry width="190" height="70" as="geometry">
            <mxRectangle width="190" height="70" as="alternateBounds" />
          </mxGeometry>
        </mxCell>
        <mxCell id="_ojp3V_NxjRKTb740ofn-14" value="=yes/no；&lt;br style=&quot;border-color: var(--border-color);&quot;&gt;判断是否需要位点验证" style="shape=partialRectangle;html=1;whiteSpace=wrap;connectable=0;strokeColor=inherit;overflow=hidden;fillColor=none;top=0;left=0;bottom=0;right=0;pointerEvents=1;fontSize=16;" parent="_ojp3V_NxjRKTb740ofn-12" vertex="1">
          <mxGeometry x="190" width="410" height="70" as="geometry">
            <mxRectangle width="410" height="70" as="alternateBounds" />
          </mxGeometry>
        </mxCell>
        <mxCell id="_ojp3V_NxjRKTb740ofn-15" value="verify=yes是灰区位点，需要验证，不需要人工IGV审核" style="shape=partialRectangle;html=1;whiteSpace=wrap;connectable=0;strokeColor=inherit;overflow=hidden;fillColor=none;top=0;left=0;bottom=0;right=0;pointerEvents=1;fontSize=16;" parent="_ojp3V_NxjRKTb740ofn-12" vertex="1">
          <mxGeometry x="600" width="200" height="70" as="geometry">
            <mxRectangle width="200" height="70" as="alternateBounds" />
          </mxGeometry>
        </mxCell>
        <mxCell id="_ojp3V_NxjRKTb740ofn-16" value="" style="shape=tableRow;horizontal=0;startSize=0;swimlaneHead=0;swimlaneBody=0;strokeColor=inherit;top=0;left=0;bottom=0;right=0;collapsible=0;dropTarget=0;fillColor=none;points=[[0,0.5],[1,0.5]];portConstraint=eastwest;fontSize=16;" parent="_ojp3V_NxjRKTb740ofn-3" vertex="1">
          <mxGeometry y="190" width="800" height="70" as="geometry" />
        </mxCell>
        <mxCell id="_ojp3V_NxjRKTb740ofn-17" value="varType" style="shape=partialRectangle;html=1;whiteSpace=wrap;connectable=0;strokeColor=inherit;overflow=hidden;fillColor=none;top=0;left=0;bottom=0;right=0;pointerEvents=1;fontSize=16;" parent="_ojp3V_NxjRKTb740ofn-16" vertex="1">
          <mxGeometry width="190" height="70" as="geometry">
            <mxRectangle width="190" height="70" as="alternateBounds" />
          </mxGeometry>
        </mxCell>
        <mxCell id="_ojp3V_NxjRKTb740ofn-18" value="=check/.；判断是否EGFR、ERBB2、KIT判断区域内非特殊突变类型的移码突变" style="shape=partialRectangle;html=1;whiteSpace=wrap;connectable=0;strokeColor=inherit;overflow=hidden;fillColor=none;top=0;left=0;bottom=0;right=0;pointerEvents=1;fontSize=16;" parent="_ojp3V_NxjRKTb740ofn-16" vertex="1">
          <mxGeometry x="190" width="410" height="70" as="geometry">
            <mxRectangle width="410" height="70" as="alternateBounds" />
          </mxGeometry>
        </mxCell>
        <mxCell id="_ojp3V_NxjRKTb740ofn-19" value="varType=check需要人工审核，需留意是否需要重新注释或者验证" style="shape=partialRectangle;html=1;whiteSpace=wrap;connectable=0;strokeColor=inherit;overflow=hidden;fillColor=none;top=0;left=0;bottom=0;right=0;pointerEvents=1;fontSize=16;" parent="_ojp3V_NxjRKTb740ofn-16" vertex="1">
          <mxGeometry x="600" width="200" height="70" as="geometry">
            <mxRectangle width="200" height="70" as="alternateBounds" />
          </mxGeometry>
        </mxCell>
        <mxCell id="QHpl8Yz81FgTYKZgwHpx-5" value="" style="shape=tableRow;horizontal=0;startSize=0;swimlaneHead=0;swimlaneBody=0;strokeColor=inherit;top=0;left=0;bottom=0;right=0;collapsible=0;dropTarget=0;fillColor=none;points=[[0,0.5],[1,0.5]];portConstraint=eastwest;fontSize=16;fontStyle=1" parent="_ojp3V_NxjRKTb740ofn-3" vertex="1">
          <mxGeometry y="260" width="800" height="70" as="geometry" />
        </mxCell>
        <mxCell id="QHpl8Yz81FgTYKZgwHpx-6" value="&lt;b&gt;2. IGV自动化相关&lt;/b&gt;" style="shape=partialRectangle;html=1;whiteSpace=wrap;connectable=0;strokeColor=inherit;overflow=hidden;fillColor=none;top=0;left=0;bottom=0;right=0;pointerEvents=1;fontSize=16;" parent="QHpl8Yz81FgTYKZgwHpx-5" vertex="1">
          <mxGeometry width="190" height="70" as="geometry">
            <mxRectangle width="190" height="70" as="alternateBounds" />
          </mxGeometry>
        </mxCell>
        <mxCell id="QHpl8Yz81FgTYKZgwHpx-7" value="" style="shape=partialRectangle;html=1;whiteSpace=wrap;connectable=0;strokeColor=inherit;overflow=hidden;fillColor=none;top=0;left=0;bottom=0;right=0;pointerEvents=1;fontSize=16;" parent="QHpl8Yz81FgTYKZgwHpx-5" vertex="1">
          <mxGeometry x="190" width="410" height="70" as="geometry">
            <mxRectangle width="410" height="70" as="alternateBounds" />
          </mxGeometry>
        </mxCell>
        <mxCell id="QHpl8Yz81FgTYKZgwHpx-8" value="" style="shape=partialRectangle;html=1;whiteSpace=wrap;connectable=0;strokeColor=inherit;overflow=hidden;fillColor=none;top=0;left=0;bottom=0;right=0;pointerEvents=1;fontSize=16;" parent="QHpl8Yz81FgTYKZgwHpx-5" vertex="1">
          <mxGeometry x="600" width="200" height="70" as="geometry">
            <mxRectangle width="200" height="70" as="alternateBounds" />
          </mxGeometry>
        </mxCell>
        <mxCell id="_ojp3V_NxjRKTb740ofn-20" value="" style="shape=tableRow;horizontal=0;startSize=0;swimlaneHead=0;swimlaneBody=0;strokeColor=inherit;top=0;left=0;bottom=0;right=0;collapsible=0;dropTarget=0;fillColor=none;points=[[0,0.5],[1,0.5]];portConstraint=eastwest;fontSize=16;" parent="_ojp3V_NxjRKTb740ofn-3" vertex="1">
          <mxGeometry y="330" width="800" height="120" as="geometry" />
        </mxCell>
        <mxCell id="_ojp3V_NxjRKTb740ofn-21" value="TISSUE-FILTER" style="shape=partialRectangle;html=1;whiteSpace=wrap;connectable=0;strokeColor=inherit;overflow=hidden;fillColor=none;top=0;left=0;bottom=0;right=0;pointerEvents=1;fontSize=16;" parent="_ojp3V_NxjRKTb740ofn-20" vertex="1">
          <mxGeometry width="190" height="120" as="geometry">
            <mxRectangle width="190" height="120" as="alternateBounds" />
          </mxGeometry>
        </mxCell>
        <mxCell id="_ojp3V_NxjRKTb740ofn-22" value="=Positve/Warning/Negative；根据人工审核标准开发的IGV自动化程序" style="shape=partialRectangle;html=1;whiteSpace=wrap;connectable=0;strokeColor=inherit;overflow=hidden;fillColor=none;top=0;left=0;bottom=0;right=0;pointerEvents=1;fontSize=16;" parent="_ojp3V_NxjRKTb740ofn-20" vertex="1">
          <mxGeometry x="190" width="410" height="120" as="geometry">
            <mxRectangle width="410" height="120" as="alternateBounds" />
          </mxGeometry>
        </mxCell>
        <mxCell id="_ojp3V_NxjRKTb740ofn-23" value="CT-FILTER=Positive表示IGV支持可靠；CT-FILTER=Negative表示IGV支持不可靠，不会出现在最终结果文件中" style="shape=partialRectangle;html=1;whiteSpace=wrap;connectable=0;strokeColor=inherit;overflow=hidden;fillColor=none;top=0;left=0;bottom=0;right=0;pointerEvents=1;fontSize=16;" parent="_ojp3V_NxjRKTb740ofn-20" vertex="1">
          <mxGeometry x="600" width="200" height="120" as="geometry">
            <mxRectangle width="200" height="120" as="alternateBounds" />
          </mxGeometry>
        </mxCell>
        <mxCell id="QHpl8Yz81FgTYKZgwHpx-9" value="" style="shape=tableRow;horizontal=0;startSize=0;swimlaneHead=0;swimlaneBody=0;strokeColor=inherit;top=0;left=0;bottom=0;right=0;collapsible=0;dropTarget=0;fillColor=none;points=[[0,0.5],[1,0.5]];portConstraint=eastwest;fontSize=16;" parent="_ojp3V_NxjRKTb740ofn-3" vertex="1">
          <mxGeometry y="450" width="800" height="70" as="geometry" />
        </mxCell>
        <mxCell id="QHpl8Yz81FgTYKZgwHpx-10" value="TISSUE-CHECK" style="shape=partialRectangle;html=1;whiteSpace=wrap;connectable=0;strokeColor=inherit;overflow=hidden;fillColor=none;top=0;left=0;bottom=0;right=0;pointerEvents=1;fontSize=16;" parent="QHpl8Yz81FgTYKZgwHpx-9" vertex="1">
          <mxGeometry width="190" height="70" as="geometry">
            <mxRectangle width="190" height="70" as="alternateBounds" />
          </mxGeometry>
        </mxCell>
        <mxCell id="QHpl8Yz81FgTYKZgwHpx-11" value="标记热点check，这个标签不用了" style="shape=partialRectangle;html=1;whiteSpace=wrap;connectable=0;strokeColor=inherit;overflow=hidden;fillColor=none;top=0;left=0;bottom=0;right=0;pointerEvents=1;fontSize=16;" parent="QHpl8Yz81FgTYKZgwHpx-9" vertex="1">
          <mxGeometry x="190" width="410" height="70" as="geometry">
            <mxRectangle width="410" height="70" as="alternateBounds" />
          </mxGeometry>
        </mxCell>
        <mxCell id="QHpl8Yz81FgTYKZgwHpx-12" value="check" style="shape=partialRectangle;html=1;whiteSpace=wrap;connectable=0;strokeColor=inherit;overflow=hidden;fillColor=none;top=0;left=0;bottom=0;right=0;pointerEvents=1;fontSize=16;" parent="QHpl8Yz81FgTYKZgwHpx-9" vertex="1">
          <mxGeometry x="600" width="200" height="70" as="geometry">
            <mxRectangle width="200" height="70" as="alternateBounds" />
          </mxGeometry>
        </mxCell>
        <mxCell id="_ojp3V_NxjRKTb740ofn-24" value="" style="shape=tableRow;horizontal=0;startSize=0;swimlaneHead=0;swimlaneBody=0;strokeColor=inherit;top=0;left=0;bottom=0;right=0;collapsible=0;dropTarget=0;fillColor=none;points=[[0,0.5],[1,0.5]];portConstraint=eastwest;fontSize=16;" parent="_ojp3V_NxjRKTb740ofn-3" vertex="1">
          <mxGeometry y="520" width="800" height="70" as="geometry" />
        </mxCell>
        <mxCell id="_ojp3V_NxjRKTb740ofn-25" value="(&amp;amp;hotspot):&amp;nbsp;" style="shape=partialRectangle;html=1;whiteSpace=wrap;connectable=0;strokeColor=inherit;overflow=hidden;fillColor=none;top=0;left=0;bottom=0;right=0;pointerEvents=1;fontSize=16;" parent="_ojp3V_NxjRKTb740ofn-24" vertex="1">
          <mxGeometry width="190" height="70" as="geometry">
            <mxRectangle width="190" height="70" as="alternateBounds" />
          </mxGeometry>
        </mxCell>
        <mxCell id="_ojp3V_NxjRKTb740ofn-26" value="表示突变位点是热点" style="shape=partialRectangle;html=1;whiteSpace=wrap;connectable=0;strokeColor=inherit;overflow=hidden;fillColor=none;top=0;left=0;bottom=0;right=0;pointerEvents=1;fontSize=16;" parent="_ojp3V_NxjRKTb740ofn-24" vertex="1">
          <mxGeometry x="190" width="410" height="70" as="geometry">
            <mxRectangle width="410" height="70" as="alternateBounds" />
          </mxGeometry>
        </mxCell>
        <mxCell id="_ojp3V_NxjRKTb740ofn-27" value="无需特殊处理" style="shape=partialRectangle;html=1;whiteSpace=wrap;connectable=0;strokeColor=inherit;overflow=hidden;fillColor=none;top=0;left=0;bottom=0;right=0;pointerEvents=1;fontSize=16;" parent="_ojp3V_NxjRKTb740ofn-24" vertex="1">
          <mxGeometry x="600" width="200" height="70" as="geometry">
            <mxRectangle width="200" height="70" as="alternateBounds" />
          </mxGeometry>
        </mxCell>
        <mxCell id="_ojp3V_NxjRKTb740ofn-28" value="" style="shape=tableRow;horizontal=0;startSize=0;swimlaneHead=0;swimlaneBody=0;strokeColor=inherit;top=0;left=0;bottom=0;right=0;collapsible=0;dropTarget=0;fillColor=none;points=[[0,0.5],[1,0.5]];portConstraint=eastwest;fontSize=16;" parent="_ojp3V_NxjRKTb740ofn-3" vertex="1">
          <mxGeometry y="590" width="800" height="70" as="geometry" />
        </mxCell>
        <mxCell id="_ojp3V_NxjRKTb740ofn-29" value="Warning: talt-count/hotspot" style="shape=partialRectangle;html=1;whiteSpace=wrap;connectable=0;strokeColor=inherit;overflow=hidden;fillColor=none;top=0;left=0;bottom=0;right=0;pointerEvents=1;fontSize=16;" parent="_ojp3V_NxjRKTb740ofn-28" vertex="1">
          <mxGeometry width="190" height="70" as="geometry">
            <mxRectangle width="190" height="70" as="alternateBounds" />
          </mxGeometry>
        </mxCell>
        <mxCell id="_ojp3V_NxjRKTb740ofn-30" value="T分子支持数&amp;lt;7 且是热点" style="shape=partialRectangle;html=1;whiteSpace=wrap;connectable=0;strokeColor=inherit;overflow=hidden;fillColor=none;top=0;left=0;bottom=0;right=0;pointerEvents=1;fontSize=16;" parent="_ojp3V_NxjRKTb740ofn-28" vertex="1">
          <mxGeometry x="190" width="410" height="70" as="geometry">
            <mxRectangle width="410" height="70" as="alternateBounds" />
          </mxGeometry>
        </mxCell>
        <mxCell id="_ojp3V_NxjRKTb740ofn-31" value="查看IGV，如果好的reads支持数&amp;lt;8且无verify=yes，则不报出" style="shape=partialRectangle;html=1;whiteSpace=wrap;connectable=0;strokeColor=inherit;overflow=hidden;fillColor=none;top=0;left=0;bottom=0;right=0;pointerEvents=1;fontSize=16;" parent="_ojp3V_NxjRKTb740ofn-28" vertex="1">
          <mxGeometry x="600" width="200" height="70" as="geometry">
            <mxRectangle width="200" height="70" as="alternateBounds" />
          </mxGeometry>
        </mxCell>
        <mxCell id="_ojp3V_NxjRKTb740ofn-32" value="" style="shape=tableRow;horizontal=0;startSize=0;swimlaneHead=0;swimlaneBody=0;strokeColor=inherit;top=0;left=0;bottom=0;right=0;collapsible=0;dropTarget=0;fillColor=none;points=[[0,0.5],[1,0.5]];portConstraint=eastwest;fontSize=16;" parent="_ojp3V_NxjRKTb740ofn-3" vertex="1">
          <mxGeometry y="660" width="800" height="70" as="geometry" />
        </mxCell>
        <mxCell id="_ojp3V_NxjRKTb740ofn-33" value="Negative: talt-count" style="shape=partialRectangle;html=1;whiteSpace=wrap;connectable=0;strokeColor=inherit;overflow=hidden;fillColor=none;top=0;left=0;bottom=0;right=0;pointerEvents=1;fontSize=16;" parent="_ojp3V_NxjRKTb740ofn-32" vertex="1">
          <mxGeometry width="190" height="70" as="geometry">
            <mxRectangle width="190" height="70" as="alternateBounds" />
          </mxGeometry>
        </mxCell>
        <mxCell id="_ojp3V_NxjRKTb740ofn-34" value="T分子支持数&amp;lt;7" style="shape=partialRectangle;html=1;whiteSpace=wrap;connectable=0;strokeColor=inherit;overflow=hidden;fillColor=none;top=0;left=0;bottom=0;right=0;pointerEvents=1;fontSize=16;" parent="_ojp3V_NxjRKTb740ofn-32" vertex="1">
          <mxGeometry x="190" width="410" height="70" as="geometry">
            <mxRectangle width="410" height="70" as="alternateBounds" />
          </mxGeometry>
        </mxCell>
        <mxCell id="_ojp3V_NxjRKTb740ofn-35" value="不会出现在最终结果文件中" style="shape=partialRectangle;html=1;whiteSpace=wrap;connectable=0;strokeColor=inherit;overflow=hidden;fillColor=none;top=0;left=0;bottom=0;right=0;pointerEvents=1;fontSize=16;" parent="_ojp3V_NxjRKTb740ofn-32" vertex="1">
          <mxGeometry x="600" width="200" height="70" as="geometry">
            <mxRectangle width="200" height="70" as="alternateBounds" />
          </mxGeometry>
        </mxCell>
        <mxCell id="_ojp3V_NxjRKTb740ofn-36" value="" style="shape=tableRow;horizontal=0;startSize=0;swimlaneHead=0;swimlaneBody=0;strokeColor=inherit;top=0;left=0;bottom=0;right=0;collapsible=0;dropTarget=0;fillColor=none;points=[[0,0.5],[1,0.5]];portConstraint=eastwest;fontSize=16;" parent="_ojp3V_NxjRKTb740ofn-3" vertex="1">
          <mxGeometry y="730" width="800" height="70" as="geometry" />
        </mxCell>
        <mxCell id="_ojp3V_NxjRKTb740ofn-37" value="Warning: total-strand-bias/hotspot" style="shape=partialRectangle;html=1;whiteSpace=wrap;connectable=0;strokeColor=inherit;overflow=hidden;fillColor=none;top=0;left=0;bottom=0;right=0;pointerEvents=1;fontSize=16;" parent="_ojp3V_NxjRKTb740ofn-36" vertex="1">
          <mxGeometry width="190" height="70" as="geometry">
            <mxRectangle width="190" height="70" as="alternateBounds" />
          </mxGeometry>
        </mxCell>
        <mxCell id="_ojp3V_NxjRKTb740ofn-38" value="只有正向或反向 且是热点" style="shape=partialRectangle;html=1;whiteSpace=wrap;connectable=0;strokeColor=inherit;overflow=hidden;fillColor=none;top=0;left=0;bottom=0;right=0;pointerEvents=1;fontSize=16;" parent="_ojp3V_NxjRKTb740ofn-36" vertex="1">
          <mxGeometry x="190" width="410" height="70" as="geometry">
            <mxRectangle width="410" height="70" as="alternateBounds" />
          </mxGeometry>
        </mxCell>
        <mxCell id="_ojp3V_NxjRKTb740ofn-39" value="查看&lt;span style=&quot;border-color: var(--border-color); text-align: left; font-family: 微软雅黑; color: rgb(64, 64, 64); letter-spacing: 1.2pt;&quot;&gt;IGV&lt;/span&gt;&lt;span style=&quot;border-color: var(--border-color); text-align: left; font-family: 微软雅黑; color: rgb(64, 64, 64); letter-spacing: 1.2pt;&quot;&gt;，如果实际支持&lt;/span&gt;&lt;span style=&quot;border-color: var(--border-color); text-align: left; font-family: 微软雅黑; color: rgb(64, 64, 64); letter-spacing: 1.2pt;&quot;&gt;reads&lt;/span&gt;&lt;span style=&quot;border-color: var(--border-color); text-align: left; font-family: 微软雅黑; color: rgb(64, 64, 64); letter-spacing: 1.2pt;&quot;&gt;都为同一方向，则不报出该突变。&lt;/span&gt;" style="shape=partialRectangle;html=1;whiteSpace=wrap;connectable=0;strokeColor=inherit;overflow=hidden;fillColor=none;top=0;left=0;bottom=0;right=0;pointerEvents=1;fontSize=16;" parent="_ojp3V_NxjRKTb740ofn-36" vertex="1">
          <mxGeometry x="600" width="200" height="70" as="geometry">
            <mxRectangle width="200" height="70" as="alternateBounds" />
          </mxGeometry>
        </mxCell>
        <mxCell id="_ojp3V_NxjRKTb740ofn-40" value="" style="shape=tableRow;horizontal=0;startSize=0;swimlaneHead=0;swimlaneBody=0;strokeColor=inherit;top=0;left=0;bottom=0;right=0;collapsible=0;dropTarget=0;fillColor=none;points=[[0,0.5],[1,0.5]];portConstraint=eastwest;fontSize=16;" parent="_ojp3V_NxjRKTb740ofn-3" vertex="1">
          <mxGeometry y="800" width="800" height="70" as="geometry" />
        </mxCell>
        <mxCell id="_ojp3V_NxjRKTb740ofn-41" value="Negative: total-strand-bias" style="shape=partialRectangle;html=1;whiteSpace=wrap;connectable=0;strokeColor=inherit;overflow=hidden;fillColor=none;top=0;left=0;bottom=0;right=0;pointerEvents=1;fontSize=16;" parent="_ojp3V_NxjRKTb740ofn-40" vertex="1">
          <mxGeometry width="190" height="70" as="geometry">
            <mxRectangle width="190" height="70" as="alternateBounds" />
          </mxGeometry>
        </mxCell>
        <mxCell id="_ojp3V_NxjRKTb740ofn-42" value="只有正向或反向" style="shape=partialRectangle;html=1;whiteSpace=wrap;connectable=0;strokeColor=inherit;overflow=hidden;fillColor=none;top=0;left=0;bottom=0;right=0;pointerEvents=1;fontSize=16;" parent="_ojp3V_NxjRKTb740ofn-40" vertex="1">
          <mxGeometry x="190" width="410" height="70" as="geometry">
            <mxRectangle width="410" height="70" as="alternateBounds" />
          </mxGeometry>
        </mxCell>
        <mxCell id="_ojp3V_NxjRKTb740ofn-43" value="不会出现在最终结果文件中" style="shape=partialRectangle;html=1;whiteSpace=wrap;connectable=0;strokeColor=inherit;overflow=hidden;fillColor=none;top=0;left=0;bottom=0;right=0;pointerEvents=1;fontSize=16;" parent="_ojp3V_NxjRKTb740ofn-40" vertex="1">
          <mxGeometry x="600" width="200" height="70" as="geometry">
            <mxRectangle width="200" height="70" as="alternateBounds" />
          </mxGeometry>
        </mxCell>
        <mxCell id="_ojp3V_NxjRKTb740ofn-44" value="" style="shape=tableRow;horizontal=0;startSize=0;swimlaneHead=0;swimlaneBody=0;strokeColor=inherit;top=0;left=0;bottom=0;right=0;collapsible=0;dropTarget=0;fillColor=none;points=[[0,0.5],[1,0.5]];portConstraint=eastwest;fontSize=16;" parent="_ojp3V_NxjRKTb740ofn-3" vertex="1">
          <mxGeometry y="870" width="800" height="70" as="geometry" />
        </mxCell>
        <mxCell id="_ojp3V_NxjRKTb740ofn-45" value="Warning: tn-ratio/nall-count/hotspot" style="shape=partialRectangle;html=1;whiteSpace=wrap;connectable=0;strokeColor=inherit;overflow=hidden;fillColor=none;top=0;left=0;bottom=0;right=0;pointerEvents=1;fontSize=16;" parent="_ojp3V_NxjRKTb740ofn-44" vertex="1">
          <mxGeometry width="190" height="70" as="geometry">
            <mxRectangle width="190" height="70" as="alternateBounds" />
          </mxGeometry>
        </mxCell>
        <mxCell id="_ojp3V_NxjRKTb740ofn-46" value="N总深度&amp;lt;10且T/N频率比&amp;lt;1 且是热点" style="shape=partialRectangle;html=1;whiteSpace=wrap;connectable=0;strokeColor=inherit;overflow=hidden;fillColor=none;top=0;left=0;bottom=0;right=0;pointerEvents=1;fontSize=16;" parent="_ojp3V_NxjRKTb740ofn-44" vertex="1">
          <mxGeometry x="190" width="410" height="70" as="geometry">
            <mxRectangle width="410" height="70" as="alternateBounds" />
          </mxGeometry>
        </mxCell>
        <mxCell id="_ojp3V_NxjRKTb740ofn-47" value="" style="shape=partialRectangle;html=1;whiteSpace=wrap;connectable=0;strokeColor=inherit;overflow=hidden;fillColor=none;top=0;left=0;bottom=0;right=0;pointerEvents=1;fontSize=16;" parent="_ojp3V_NxjRKTb740ofn-44" vertex="1">
          <mxGeometry x="600" width="200" height="70" as="geometry">
            <mxRectangle width="200" height="70" as="alternateBounds" />
          </mxGeometry>
        </mxCell>
        <mxCell id="_ojp3V_NxjRKTb740ofn-48" value="" style="shape=tableRow;horizontal=0;startSize=0;swimlaneHead=0;swimlaneBody=0;strokeColor=inherit;top=0;left=0;bottom=0;right=0;collapsible=0;dropTarget=0;fillColor=none;points=[[0,0.5],[1,0.5]];portConstraint=eastwest;fontSize=16;" parent="_ojp3V_NxjRKTb740ofn-3" vertex="1">
          <mxGeometry y="940" width="800" height="70" as="geometry" />
        </mxCell>
        <mxCell id="_ojp3V_NxjRKTb740ofn-49" value="Negative: tn-ratio/nall-count" style="shape=partialRectangle;html=1;whiteSpace=wrap;connectable=0;strokeColor=inherit;overflow=hidden;fillColor=none;top=0;left=0;bottom=0;right=0;pointerEvents=1;fontSize=16;" parent="_ojp3V_NxjRKTb740ofn-48" vertex="1">
          <mxGeometry width="190" height="70" as="geometry">
            <mxRectangle width="190" height="70" as="alternateBounds" />
          </mxGeometry>
        </mxCell>
        <mxCell id="_ojp3V_NxjRKTb740ofn-50" value="N总深度&amp;lt;10且T/N频率比&amp;lt;1&amp;nbsp;" style="shape=partialRectangle;html=1;whiteSpace=wrap;connectable=0;strokeColor=inherit;overflow=hidden;fillColor=none;top=0;left=0;bottom=0;right=0;pointerEvents=1;fontSize=16;" parent="_ojp3V_NxjRKTb740ofn-48" vertex="1">
          <mxGeometry x="190" width="410" height="70" as="geometry">
            <mxRectangle width="410" height="70" as="alternateBounds" />
          </mxGeometry>
        </mxCell>
        <mxCell id="_ojp3V_NxjRKTb740ofn-51" value="不会出现在最终结果文件中" style="shape=partialRectangle;html=1;whiteSpace=wrap;connectable=0;strokeColor=inherit;overflow=hidden;fillColor=none;top=0;left=0;bottom=0;right=0;pointerEvents=1;fontSize=16;" parent="_ojp3V_NxjRKTb740ofn-48" vertex="1">
          <mxGeometry x="600" width="200" height="70" as="geometry">
            <mxRectangle width="200" height="70" as="alternateBounds" />
          </mxGeometry>
        </mxCell>
        <mxCell id="_ojp3V_NxjRKTb740ofn-52" value="" style="shape=tableRow;horizontal=0;startSize=0;swimlaneHead=0;swimlaneBody=0;strokeColor=inherit;top=0;left=0;bottom=0;right=0;collapsible=0;dropTarget=0;fillColor=none;points=[[0,0.5],[1,0.5]];portConstraint=eastwest;fontSize=16;" parent="_ojp3V_NxjRKTb740ofn-3" vertex="1">
          <mxGeometry y="1010" width="800" height="70" as="geometry" />
        </mxCell>
        <mxCell id="_ojp3V_NxjRKTb740ofn-53" value="Warning: strand-bias（/hotspot）" style="shape=partialRectangle;html=1;whiteSpace=wrap;connectable=0;strokeColor=inherit;overflow=hidden;fillColor=none;top=0;left=0;bottom=0;right=0;pointerEvents=1;fontSize=16;" parent="_ojp3V_NxjRKTb740ofn-52" vertex="1">
          <mxGeometry width="190" height="70" as="geometry">
            <mxRectangle width="190" height="70" as="alternateBounds" />
          </mxGeometry>
        </mxCell>
        <mxCell id="_ojp3V_NxjRKTb740ofn-54" value="任一链支持&amp;gt;=2或在所有支持中频率&amp;gt;=0.2 （且是热点）" style="shape=partialRectangle;html=1;whiteSpace=wrap;connectable=0;strokeColor=inherit;overflow=hidden;fillColor=none;top=0;left=0;bottom=0;right=0;pointerEvents=1;fontSize=16;" parent="_ojp3V_NxjRKTb740ofn-52" vertex="1">
          <mxGeometry x="190" width="410" height="70" as="geometry">
            <mxRectangle width="410" height="70" as="alternateBounds" />
          </mxGeometry>
        </mxCell>
        <mxCell id="_ojp3V_NxjRKTb740ofn-55" value="查看&lt;span style=&quot;border-color: var(--border-color); text-align: left; font-family: 微软雅黑; color: rgb(64, 64, 64); letter-spacing: 1.2pt;&quot;&gt;IGV&lt;/span&gt;&lt;span style=&quot;border-color: var(--border-color); text-align: left; font-family: 微软雅黑; color: rgb(64, 64, 64); letter-spacing: 1.2pt;&quot;&gt;，如果实际支持&lt;/span&gt;&lt;span style=&quot;border-color: var(--border-color); text-align: left; font-family: 微软雅黑; color: rgb(64, 64, 64); letter-spacing: 1.2pt;&quot;&gt;reads&lt;/span&gt;&lt;span style=&quot;border-color: var(--border-color); text-align: left; font-family: 微软雅黑; color: rgb(64, 64, 64); letter-spacing: 1.2pt;&quot;&gt;都为同一方向，则不报出该突变。&lt;/span&gt;" style="shape=partialRectangle;html=1;whiteSpace=wrap;connectable=0;strokeColor=inherit;overflow=hidden;fillColor=none;top=0;left=0;bottom=0;right=0;pointerEvents=1;fontSize=16;" parent="_ojp3V_NxjRKTb740ofn-52" vertex="1">
          <mxGeometry x="600" width="200" height="70" as="geometry">
            <mxRectangle width="200" height="70" as="alternateBounds" />
          </mxGeometry>
        </mxCell>
        <mxCell id="_ojp3V_NxjRKTb740ofn-56" value="" style="shape=tableRow;horizontal=0;startSize=0;swimlaneHead=0;swimlaneBody=0;strokeColor=inherit;top=0;left=0;bottom=0;right=0;collapsible=0;dropTarget=0;fillColor=none;points=[[0,0.5],[1,0.5]];portConstraint=eastwest;fontSize=16;" parent="_ojp3V_NxjRKTb740ofn-3" vertex="1">
          <mxGeometry y="1080" width="800" height="70" as="geometry" />
        </mxCell>
        <mxCell id="_ojp3V_NxjRKTb740ofn-57" value="Warning: tn-ratio（/hotspot）" style="shape=partialRectangle;html=1;whiteSpace=wrap;connectable=0;strokeColor=inherit;overflow=hidden;fillColor=none;top=0;left=0;bottom=0;right=0;pointerEvents=1;fontSize=16;" parent="_ojp3V_NxjRKTb740ofn-56" vertex="1">
          <mxGeometry width="190" height="70" as="geometry">
            <mxRectangle width="190" height="70" as="alternateBounds" />
          </mxGeometry>
        </mxCell>
        <mxCell id="_ojp3V_NxjRKTb740ofn-58" value="TN频率比&amp;lt;7（且是热点）" style="shape=partialRectangle;html=1;whiteSpace=wrap;connectable=0;strokeColor=inherit;overflow=hidden;fillColor=none;top=0;left=0;bottom=0;right=0;pointerEvents=1;fontSize=16;" parent="_ojp3V_NxjRKTb740ofn-56" vertex="1">
          <mxGeometry x="190" width="410" height="70" as="geometry">
            <mxRectangle width="410" height="70" as="alternateBounds" />
          </mxGeometry>
        </mxCell>
        <mxCell id="_ojp3V_NxjRKTb740ofn-59" value="" style="shape=partialRectangle;html=1;whiteSpace=wrap;connectable=0;strokeColor=inherit;overflow=hidden;fillColor=none;top=0;left=0;bottom=0;right=0;pointerEvents=1;fontSize=16;" parent="_ojp3V_NxjRKTb740ofn-56" vertex="1">
          <mxGeometry x="600" width="200" height="70" as="geometry">
            <mxRectangle width="200" height="70" as="alternateBounds" />
          </mxGeometry>
        </mxCell>
        <mxCell id="_ojp3V_NxjRKTb740ofn-60" value="" style="shape=tableRow;horizontal=0;startSize=0;swimlaneHead=0;swimlaneBody=0;strokeColor=inherit;top=0;left=0;bottom=0;right=0;collapsible=0;dropTarget=0;fillColor=none;points=[[0,0.5],[1,0.5]];portConstraint=eastwest;fontSize=16;" parent="_ojp3V_NxjRKTb740ofn-3" vertex="1">
          <mxGeometry y="1150" width="800" height="70" as="geometry" />
        </mxCell>
        <mxCell id="_ojp3V_NxjRKTb740ofn-61" value="Warning: nall-count（/hotspot）" style="shape=partialRectangle;html=1;whiteSpace=wrap;connectable=0;strokeColor=inherit;overflow=hidden;fillColor=none;top=0;left=0;bottom=0;right=0;pointerEvents=1;fontSize=16;" parent="_ojp3V_NxjRKTb740ofn-60" vertex="1">
          <mxGeometry width="190" height="70" as="geometry">
            <mxRectangle width="190" height="70" as="alternateBounds" />
          </mxGeometry>
        </mxCell>
        <mxCell id="_ojp3V_NxjRKTb740ofn-62" value="N深度过低&amp;lt;10（且是热点）" style="shape=partialRectangle;html=1;whiteSpace=wrap;connectable=0;strokeColor=inherit;overflow=hidden;fillColor=none;top=0;left=0;bottom=0;right=0;pointerEvents=1;fontSize=16;" parent="_ojp3V_NxjRKTb740ofn-60" vertex="1">
          <mxGeometry x="190" width="410" height="70" as="geometry">
            <mxRectangle width="410" height="70" as="alternateBounds" />
          </mxGeometry>
        </mxCell>
        <mxCell id="_ojp3V_NxjRKTb740ofn-63" value="" style="shape=partialRectangle;html=1;whiteSpace=wrap;connectable=0;strokeColor=inherit;overflow=hidden;fillColor=none;top=0;left=0;bottom=0;right=0;pointerEvents=1;fontSize=16;" parent="_ojp3V_NxjRKTb740ofn-60" vertex="1">
          <mxGeometry x="600" width="200" height="70" as="geometry">
            <mxRectangle width="200" height="70" as="alternateBounds" />
          </mxGeometry>
        </mxCell>
        <mxCell id="_ojp3V_NxjRKTb740ofn-68" value="" style="shape=tableRow;horizontal=0;startSize=0;swimlaneHead=0;swimlaneBody=0;strokeColor=inherit;top=0;left=0;bottom=0;right=0;collapsible=0;dropTarget=0;fillColor=none;points=[[0,0.5],[1,0.5]];portConstraint=eastwest;fontSize=16;" parent="_ojp3V_NxjRKTb740ofn-3" vertex="1">
          <mxGeometry y="1220" width="800" height="70" as="geometry" />
        </mxCell>
        <mxCell id="_ojp3V_NxjRKTb740ofn-69" value="Warning: talt-nomismatch（/hotspot）" style="shape=partialRectangle;html=1;whiteSpace=wrap;connectable=0;strokeColor=inherit;overflow=hidden;fillColor=none;top=0;left=0;bottom=0;right=0;pointerEvents=1;fontSize=16;" parent="_ojp3V_NxjRKTb740ofn-68" vertex="1">
          <mxGeometry width="190" height="70" as="geometry">
            <mxRectangle width="190" height="70" as="alternateBounds" />
          </mxGeometry>
        </mxCell>
        <mxCell id="_ojp3V_NxjRKTb740ofn-70" value="T无错配支持数&amp;lt;7（且是热点）" style="shape=partialRectangle;html=1;whiteSpace=wrap;connectable=0;strokeColor=inherit;overflow=hidden;fillColor=none;top=0;left=0;bottom=0;right=0;pointerEvents=1;fontSize=16;" parent="_ojp3V_NxjRKTb740ofn-68" vertex="1">
          <mxGeometry x="190" width="410" height="70" as="geometry">
            <mxRectangle width="410" height="70" as="alternateBounds" />
          </mxGeometry>
        </mxCell>
        <mxCell id="_ojp3V_NxjRKTb740ofn-71" value="" style="shape=partialRectangle;html=1;whiteSpace=wrap;connectable=0;strokeColor=inherit;overflow=hidden;fillColor=none;top=0;left=0;bottom=0;right=0;pointerEvents=1;fontSize=16;" parent="_ojp3V_NxjRKTb740ofn-68" vertex="1">
          <mxGeometry x="600" width="200" height="70" as="geometry">
            <mxRectangle width="200" height="70" as="alternateBounds" />
          </mxGeometry>
        </mxCell>
        <mxCell id="_ojp3V_NxjRKTb740ofn-76" value="" style="shape=tableRow;horizontal=0;startSize=0;swimlaneHead=0;swimlaneBody=0;strokeColor=inherit;top=0;left=0;bottom=0;right=0;collapsible=0;dropTarget=0;fillColor=none;points=[[0,0.5],[1,0.5]];portConstraint=eastwest;fontSize=16;" parent="_ojp3V_NxjRKTb740ofn-3" vertex="1">
          <mxGeometry y="1290" width="800" height="70" as="geometry" />
        </mxCell>
        <mxCell id="_ojp3V_NxjRKTb740ofn-77" value="Warning: talt-merge-variant（/hotspot）" style="shape=partialRectangle;html=1;whiteSpace=wrap;connectable=0;strokeColor=inherit;overflow=hidden;fillColor=none;top=0;left=0;bottom=0;right=0;pointerEvents=1;fontSize=16;" parent="_ojp3V_NxjRKTb740ofn-76" vertex="1">
          <mxGeometry width="190" height="70" as="geometry">
            <mxRectangle width="190" height="70" as="alternateBounds" />
          </mxGeometry>
        </mxCell>
        <mxCell id="_ojp3V_NxjRKTb740ofn-78" value="合并变异占比高&amp;gt;0.9（且是热点）" style="shape=partialRectangle;html=1;whiteSpace=wrap;connectable=0;strokeColor=inherit;overflow=hidden;fillColor=none;top=0;left=0;bottom=0;right=0;pointerEvents=1;fontSize=16;" parent="_ojp3V_NxjRKTb740ofn-76" vertex="1">
          <mxGeometry x="190" width="410" height="70" as="geometry">
            <mxRectangle width="410" height="70" as="alternateBounds" />
          </mxGeometry>
        </mxCell>
        <mxCell id="_ojp3V_NxjRKTb740ofn-79" value="" style="shape=partialRectangle;html=1;whiteSpace=wrap;connectable=0;strokeColor=inherit;overflow=hidden;fillColor=none;top=0;left=0;bottom=0;right=0;pointerEvents=1;fontSize=16;" parent="_ojp3V_NxjRKTb740ofn-76" vertex="1">
          <mxGeometry x="600" width="200" height="70" as="geometry">
            <mxRectangle width="200" height="70" as="alternateBounds" />
          </mxGeometry>
        </mxCell>
        <mxCell id="_ojp3V_NxjRKTb740ofn-72" value="" style="shape=tableRow;horizontal=0;startSize=0;swimlaneHead=0;swimlaneBody=0;strokeColor=inherit;top=0;left=0;bottom=0;right=0;collapsible=0;dropTarget=0;fillColor=none;points=[[0,0.5],[1,0.5]];portConstraint=eastwest;fontSize=16;" parent="_ojp3V_NxjRKTb740ofn-3" vertex="1">
          <mxGeometry y="1360" width="800" height="70" as="geometry" />
        </mxCell>
        <mxCell id="_ojp3V_NxjRKTb740ofn-73" value="Warning: talt-cutoff-distance（/hotspot）" style="shape=partialRectangle;html=1;whiteSpace=wrap;connectable=0;strokeColor=inherit;overflow=hidden;fillColor=none;top=0;left=0;bottom=0;right=0;pointerEvents=1;fontSize=16;" parent="_ojp3V_NxjRKTb740ofn-72" vertex="1">
          <mxGeometry width="190" height="70" as="geometry">
            <mxRectangle width="190" height="70" as="alternateBounds" />
          </mxGeometry>
        </mxCell>
        <mxCell id="_ojp3V_NxjRKTb740ofn-74" value="整齐软截断占比高&amp;gt;0.6（且是热点）" style="shape=partialRectangle;html=1;whiteSpace=wrap;connectable=0;strokeColor=inherit;overflow=hidden;fillColor=none;top=0;left=0;bottom=0;right=0;pointerEvents=1;fontSize=16;" parent="_ojp3V_NxjRKTb740ofn-72" vertex="1">
          <mxGeometry x="190" width="410" height="70" as="geometry">
            <mxRectangle width="410" height="70" as="alternateBounds" />
          </mxGeometry>
        </mxCell>
        <mxCell id="_ojp3V_NxjRKTb740ofn-75" value="" style="shape=partialRectangle;html=1;whiteSpace=wrap;connectable=0;strokeColor=inherit;overflow=hidden;fillColor=none;top=0;left=0;bottom=0;right=0;pointerEvents=1;fontSize=16;" parent="_ojp3V_NxjRKTb740ofn-72" vertex="1">
          <mxGeometry x="600" width="200" height="70" as="geometry">
            <mxRectangle width="200" height="70" as="alternateBounds" />
          </mxGeometry>
        </mxCell>
        <mxCell id="_ojp3V_NxjRKTb740ofn-80" value="" style="shape=tableRow;horizontal=0;startSize=0;swimlaneHead=0;swimlaneBody=0;strokeColor=inherit;top=0;left=0;bottom=0;right=0;collapsible=0;dropTarget=0;fillColor=none;points=[[0,0.5],[1,0.5]];portConstraint=eastwest;fontSize=16;" parent="_ojp3V_NxjRKTb740ofn-3" vertex="1">
          <mxGeometry y="1430" width="800" height="70" as="geometry" />
        </mxCell>
        <mxCell id="_ojp3V_NxjRKTb740ofn-81" value="Warning: tfreq-100%（/hotspot）" style="shape=partialRectangle;html=1;whiteSpace=wrap;connectable=0;strokeColor=inherit;overflow=hidden;fillColor=none;top=0;left=0;bottom=0;right=0;pointerEvents=1;fontSize=16;" parent="_ojp3V_NxjRKTb740ofn-80" vertex="1">
          <mxGeometry width="190" height="70" as="geometry">
            <mxRectangle width="190" height="70" as="alternateBounds" />
          </mxGeometry>
        </mxCell>
        <mxCell id="_ojp3V_NxjRKTb740ofn-82" value="T频率100%（且是热点）" style="shape=partialRectangle;html=1;whiteSpace=wrap;connectable=0;strokeColor=inherit;overflow=hidden;fillColor=none;top=0;left=0;bottom=0;right=0;pointerEvents=1;fontSize=16;" parent="_ojp3V_NxjRKTb740ofn-80" vertex="1">
          <mxGeometry x="190" width="410" height="70" as="geometry">
            <mxRectangle width="410" height="70" as="alternateBounds" />
          </mxGeometry>
        </mxCell>
        <mxCell id="_ojp3V_NxjRKTb740ofn-83" value="" style="shape=partialRectangle;html=1;whiteSpace=wrap;connectable=0;strokeColor=inherit;overflow=hidden;fillColor=none;top=0;left=0;bottom=0;right=0;pointerEvents=1;fontSize=16;" parent="_ojp3V_NxjRKTb740ofn-80" vertex="1">
          <mxGeometry x="600" width="200" height="70" as="geometry">
            <mxRectangle width="200" height="70" as="alternateBounds" />
          </mxGeometry>
        </mxCell>
        <mxCell id="_ojp3V_NxjRKTb740ofn-84" value="" style="shape=tableRow;horizontal=0;startSize=0;swimlaneHead=0;swimlaneBody=0;strokeColor=inherit;top=0;left=0;bottom=0;right=0;collapsible=0;dropTarget=0;fillColor=none;points=[[0,0.5],[1,0.5]];portConstraint=eastwest;fontSize=16;" parent="_ojp3V_NxjRKTb740ofn-3" vertex="1">
          <mxGeometry y="1500" width="800" height="70" as="geometry" />
        </mxCell>
        <mxCell id="_ojp3V_NxjRKTb740ofn-85" value="Positive（: hotspot）" style="shape=partialRectangle;html=1;whiteSpace=wrap;connectable=0;strokeColor=inherit;overflow=hidden;fillColor=none;top=0;left=0;bottom=0;right=0;pointerEvents=1;fontSize=16;" parent="_ojp3V_NxjRKTb740ofn-84" vertex="1">
          <mxGeometry width="190" height="70" as="geometry">
            <mxRectangle width="190" height="70" as="alternateBounds" />
          </mxGeometry>
        </mxCell>
        <mxCell id="_ojp3V_NxjRKTb740ofn-86" value="IGV支持可靠" style="shape=partialRectangle;html=1;whiteSpace=wrap;connectable=0;strokeColor=inherit;overflow=hidden;fillColor=none;top=0;left=0;bottom=0;right=0;pointerEvents=1;fontSize=16;" parent="_ojp3V_NxjRKTb740ofn-84" vertex="1">
          <mxGeometry x="190" width="410" height="70" as="geometry">
            <mxRectangle width="410" height="70" as="alternateBounds" />
          </mxGeometry>
        </mxCell>
        <mxCell id="_ojp3V_NxjRKTb740ofn-87" value="如果无verify=yes或varType=check，则不需要人工审核" style="shape=partialRectangle;html=1;whiteSpace=wrap;connectable=0;strokeColor=inherit;overflow=hidden;fillColor=none;top=0;left=0;bottom=0;right=0;pointerEvents=1;fontSize=16;" parent="_ojp3V_NxjRKTb740ofn-84" vertex="1">
          <mxGeometry x="600" width="200" height="70" as="geometry">
            <mxRectangle width="200" height="70" as="alternateBounds" />
          </mxGeometry>
        </mxCell>
        <mxCell id="_ojp3V_NxjRKTb740ofn-100" value="" style="shape=tableRow;horizontal=0;startSize=0;swimlaneHead=0;swimlaneBody=0;strokeColor=inherit;top=0;left=0;bottom=0;right=0;collapsible=0;dropTarget=0;fillColor=none;points=[[0,0.5],[1,0.5]];portConstraint=eastwest;fontSize=16;" parent="_ojp3V_NxjRKTb740ofn-3" vertex="1">
          <mxGeometry y="1570" width="800" height="70" as="geometry" />
        </mxCell>
        <mxCell id="_ojp3V_NxjRKTb740ofn-101" value="talt_nomismatch" style="shape=partialRectangle;html=1;whiteSpace=wrap;connectable=0;strokeColor=inherit;overflow=hidden;fillColor=none;top=0;left=0;bottom=0;right=0;pointerEvents=1;fontSize=16;" parent="_ojp3V_NxjRKTb740ofn-100" vertex="1">
          <mxGeometry width="190" height="70" as="geometry">
            <mxRectangle width="190" height="70" as="alternateBounds" />
          </mxGeometry>
        </mxCell>
        <mxCell id="_ojp3V_NxjRKTb740ofn-102" value="突变的无错配支持数" style="shape=partialRectangle;html=1;whiteSpace=wrap;connectable=0;strokeColor=inherit;overflow=hidden;fillColor=none;top=0;left=0;bottom=0;right=0;pointerEvents=1;fontSize=16;" parent="_ojp3V_NxjRKTb740ofn-100" vertex="1">
          <mxGeometry x="190" width="410" height="70" as="geometry">
            <mxRectangle width="410" height="70" as="alternateBounds" />
          </mxGeometry>
        </mxCell>
        <mxCell id="_ojp3V_NxjRKTb740ofn-103" value="" style="shape=partialRectangle;html=1;whiteSpace=wrap;connectable=0;strokeColor=inherit;overflow=hidden;fillColor=none;top=0;left=0;bottom=0;right=0;pointerEvents=1;fontSize=16;" parent="_ojp3V_NxjRKTb740ofn-100" vertex="1">
          <mxGeometry x="600" width="200" height="70" as="geometry">
            <mxRectangle width="200" height="70" as="alternateBounds" />
          </mxGeometry>
        </mxCell>
        <mxCell id="_ojp3V_NxjRKTb740ofn-96" value="" style="shape=tableRow;horizontal=0;startSize=0;swimlaneHead=0;swimlaneBody=0;strokeColor=inherit;top=0;left=0;bottom=0;right=0;collapsible=0;dropTarget=0;fillColor=none;points=[[0,0.5],[1,0.5]];portConstraint=eastwest;fontSize=16;" parent="_ojp3V_NxjRKTb740ofn-3" vertex="1">
          <mxGeometry y="1640" width="800" height="70" as="geometry" />
        </mxCell>
        <mxCell id="_ojp3V_NxjRKTb740ofn-97" value="&amp;nbsp;talt-count" style="shape=partialRectangle;html=1;whiteSpace=wrap;connectable=0;strokeColor=inherit;overflow=hidden;fillColor=none;top=0;left=0;bottom=0;right=0;pointerEvents=1;fontSize=16;" parent="_ojp3V_NxjRKTb740ofn-96" vertex="1">
          <mxGeometry width="190" height="70" as="geometry">
            <mxRectangle width="190" height="70" as="alternateBounds" />
          </mxGeometry>
        </mxCell>
        <mxCell id="_ojp3V_NxjRKTb740ofn-98" value="突变支持数" style="shape=partialRectangle;html=1;whiteSpace=wrap;connectable=0;strokeColor=inherit;overflow=hidden;fillColor=none;top=0;left=0;bottom=0;right=0;pointerEvents=1;fontSize=16;" parent="_ojp3V_NxjRKTb740ofn-96" vertex="1">
          <mxGeometry x="190" width="410" height="70" as="geometry">
            <mxRectangle width="410" height="70" as="alternateBounds" />
          </mxGeometry>
        </mxCell>
        <mxCell id="_ojp3V_NxjRKTb740ofn-99" value="" style="shape=partialRectangle;html=1;whiteSpace=wrap;connectable=0;strokeColor=inherit;overflow=hidden;fillColor=none;top=0;left=0;bottom=0;right=0;pointerEvents=1;fontSize=16;" parent="_ojp3V_NxjRKTb740ofn-96" vertex="1">
          <mxGeometry x="600" width="200" height="70" as="geometry">
            <mxRectangle width="200" height="70" as="alternateBounds" />
          </mxGeometry>
        </mxCell>
        <mxCell id="QHpl8Yz81FgTYKZgwHpx-13" value="" style="shape=tableRow;horizontal=0;startSize=0;swimlaneHead=0;swimlaneBody=0;strokeColor=inherit;top=0;left=0;bottom=0;right=0;collapsible=0;dropTarget=0;fillColor=none;points=[[0,0.5],[1,0.5]];portConstraint=eastwest;fontSize=16;" parent="_ojp3V_NxjRKTb740ofn-3" vertex="1">
          <mxGeometry y="1710" width="800" height="70" as="geometry" />
        </mxCell>
        <mxCell id="QHpl8Yz81FgTYKZgwHpx-14" value="&lt;b&gt;3. 串联重复相关&lt;/b&gt;" style="shape=partialRectangle;html=1;whiteSpace=wrap;connectable=0;strokeColor=inherit;overflow=hidden;fillColor=none;top=0;left=0;bottom=0;right=0;pointerEvents=1;fontSize=16;" parent="QHpl8Yz81FgTYKZgwHpx-13" vertex="1">
          <mxGeometry width="190" height="70" as="geometry">
            <mxRectangle width="190" height="70" as="alternateBounds" />
          </mxGeometry>
        </mxCell>
        <mxCell id="QHpl8Yz81FgTYKZgwHpx-15" value="" style="shape=partialRectangle;html=1;whiteSpace=wrap;connectable=0;strokeColor=inherit;overflow=hidden;fillColor=none;top=0;left=0;bottom=0;right=0;pointerEvents=1;fontSize=16;" parent="QHpl8Yz81FgTYKZgwHpx-13" vertex="1">
          <mxGeometry x="190" width="410" height="70" as="geometry">
            <mxRectangle width="410" height="70" as="alternateBounds" />
          </mxGeometry>
        </mxCell>
        <mxCell id="QHpl8Yz81FgTYKZgwHpx-16" value="" style="shape=partialRectangle;html=1;whiteSpace=wrap;connectable=0;strokeColor=inherit;overflow=hidden;fillColor=none;top=0;left=0;bottom=0;right=0;pointerEvents=1;fontSize=16;" parent="QHpl8Yz81FgTYKZgwHpx-13" vertex="1">
          <mxGeometry x="600" width="200" height="70" as="geometry">
            <mxRectangle width="200" height="70" as="alternateBounds" />
          </mxGeometry>
        </mxCell>
        <mxCell id="_ojp3V_NxjRKTb740ofn-92" value="" style="shape=tableRow;horizontal=0;startSize=0;swimlaneHead=0;swimlaneBody=0;strokeColor=inherit;top=0;left=0;bottom=0;right=0;collapsible=0;dropTarget=0;fillColor=none;points=[[0,0.5],[1,0.5]];portConstraint=eastwest;fontSize=16;" parent="_ojp3V_NxjRKTb740ofn-3" vertex="1">
          <mxGeometry y="1780" width="800" height="70" as="geometry" />
        </mxCell>
        <mxCell id="_ojp3V_NxjRKTb740ofn-93" value="MLP_Tag" style="shape=partialRectangle;html=1;whiteSpace=wrap;connectable=0;strokeColor=inherit;overflow=hidden;fillColor=none;top=0;left=0;bottom=0;right=0;pointerEvents=1;fontSize=16;" parent="_ojp3V_NxjRKTb740ofn-92" vertex="1">
          <mxGeometry width="190" height="70" as="geometry">
            <mxRectangle width="190" height="70" as="alternateBounds" />
          </mxGeometry>
        </mxCell>
        <mxCell id="_ojp3V_NxjRKTb740ofn-94" value="" style="shape=partialRectangle;html=1;whiteSpace=wrap;connectable=0;strokeColor=inherit;overflow=hidden;fillColor=none;top=0;left=0;bottom=0;right=0;pointerEvents=1;fontSize=16;" parent="_ojp3V_NxjRKTb740ofn-92" vertex="1">
          <mxGeometry x="190" width="410" height="70" as="geometry">
            <mxRectangle width="410" height="70" as="alternateBounds" />
          </mxGeometry>
        </mxCell>
        <mxCell id="_ojp3V_NxjRKTb740ofn-95" value="./keep/filter/germline/check" style="shape=partialRectangle;html=1;whiteSpace=wrap;connectable=0;strokeColor=inherit;overflow=hidden;fillColor=none;top=0;left=0;bottom=0;right=0;pointerEvents=1;fontSize=16;" parent="_ojp3V_NxjRKTb740ofn-92" vertex="1">
          <mxGeometry x="600" width="200" height="70" as="geometry">
            <mxRectangle width="200" height="70" as="alternateBounds" />
          </mxGeometry>
        </mxCell>
        <mxCell id="_ojp3V_NxjRKTb740ofn-88" value="" style="shape=tableRow;horizontal=0;startSize=0;swimlaneHead=0;swimlaneBody=0;strokeColor=inherit;top=0;left=0;bottom=0;right=0;collapsible=0;dropTarget=0;fillColor=none;points=[[0,0.5],[1,0.5]];portConstraint=eastwest;fontSize=16;" parent="_ojp3V_NxjRKTb740ofn-3" vertex="1">
          <mxGeometry y="1850" width="800" height="70" as="geometry" />
        </mxCell>
        <mxCell id="_ojp3V_NxjRKTb740ofn-89" value="Freq825" style="shape=partialRectangle;html=1;whiteSpace=wrap;connectable=0;strokeColor=inherit;overflow=hidden;fillColor=none;top=0;left=0;bottom=0;right=0;pointerEvents=1;fontSize=16;" parent="_ojp3V_NxjRKTb740ofn-88" vertex="1">
          <mxGeometry width="190" height="70" as="geometry">
            <mxRectangle width="190" height="70" as="alternateBounds" />
          </mxGeometry>
        </mxCell>
        <mxCell id="_ojp3V_NxjRKTb740ofn-90" value="" style="shape=partialRectangle;html=1;whiteSpace=wrap;connectable=0;strokeColor=inherit;overflow=hidden;fillColor=none;top=0;left=0;bottom=0;right=0;pointerEvents=1;fontSize=16;" parent="_ojp3V_NxjRKTb740ofn-88" vertex="1">
          <mxGeometry x="190" width="410" height="70" as="geometry">
            <mxRectangle width="410" height="70" as="alternateBounds" />
          </mxGeometry>
        </mxCell>
        <mxCell id="_ojp3V_NxjRKTb740ofn-91" value="" style="shape=partialRectangle;html=1;whiteSpace=wrap;connectable=0;strokeColor=inherit;overflow=hidden;fillColor=none;top=0;left=0;bottom=0;right=0;pointerEvents=1;fontSize=16;" parent="_ojp3V_NxjRKTb740ofn-88" vertex="1">
          <mxGeometry x="600" width="200" height="70" as="geometry">
            <mxRectangle width="200" height="70" as="alternateBounds" />
          </mxGeometry>
        </mxCell>
        <mxCell id="QHpl8Yz81FgTYKZgwHpx-21" value="" style="shape=tableRow;horizontal=0;startSize=0;swimlaneHead=0;swimlaneBody=0;strokeColor=inherit;top=0;left=0;bottom=0;right=0;collapsible=0;dropTarget=0;fillColor=none;points=[[0,0.5],[1,0.5]];portConstraint=eastwest;fontSize=16;" parent="_ojp3V_NxjRKTb740ofn-3" vertex="1">
          <mxGeometry y="1920" width="800" height="70" as="geometry" />
        </mxCell>
        <mxCell id="QHpl8Yz81FgTYKZgwHpx-22" value="&lt;b&gt;4.流程过滤步骤TAG&lt;/b&gt;" style="shape=partialRectangle;html=1;whiteSpace=wrap;connectable=0;strokeColor=inherit;overflow=hidden;fillColor=none;top=0;left=0;bottom=0;right=0;pointerEvents=1;fontSize=16;" parent="QHpl8Yz81FgTYKZgwHpx-21" vertex="1">
          <mxGeometry width="190" height="70" as="geometry">
            <mxRectangle width="190" height="70" as="alternateBounds" />
          </mxGeometry>
        </mxCell>
        <mxCell id="QHpl8Yz81FgTYKZgwHpx-23" value="" style="shape=partialRectangle;html=1;whiteSpace=wrap;connectable=0;strokeColor=inherit;overflow=hidden;fillColor=none;top=0;left=0;bottom=0;right=0;pointerEvents=1;fontSize=16;" parent="QHpl8Yz81FgTYKZgwHpx-21" vertex="1">
          <mxGeometry x="190" width="410" height="70" as="geometry">
            <mxRectangle width="410" height="70" as="alternateBounds" />
          </mxGeometry>
        </mxCell>
        <mxCell id="QHpl8Yz81FgTYKZgwHpx-24" value="" style="shape=partialRectangle;html=1;whiteSpace=wrap;connectable=0;strokeColor=inherit;overflow=hidden;fillColor=none;top=0;left=0;bottom=0;right=0;pointerEvents=1;fontSize=16;" parent="QHpl8Yz81FgTYKZgwHpx-21" vertex="1">
          <mxGeometry x="600" width="200" height="70" as="geometry">
            <mxRectangle width="200" height="70" as="alternateBounds" />
          </mxGeometry>
        </mxCell>
        <mxCell id="_ojp3V_NxjRKTb740ofn-108" value="" style="shape=tableRow;horizontal=0;startSize=0;swimlaneHead=0;swimlaneBody=0;strokeColor=inherit;top=0;left=0;bottom=0;right=0;collapsible=0;dropTarget=0;fillColor=none;points=[[0,0.5],[1,0.5]];portConstraint=eastwest;fontSize=16;" parent="_ojp3V_NxjRKTb740ofn-3" vertex="1">
          <mxGeometry y="1990" width="800" height="70" as="geometry" />
        </mxCell>
        <mxCell id="_ojp3V_NxjRKTb740ofn-109" value="repeat" style="shape=partialRectangle;html=1;whiteSpace=wrap;connectable=0;strokeColor=inherit;overflow=hidden;fillColor=none;top=0;left=0;bottom=0;right=0;pointerEvents=1;fontSize=16;" parent="_ojp3V_NxjRKTb740ofn-108" vertex="1">
          <mxGeometry width="190" height="70" as="geometry">
            <mxRectangle width="190" height="70" as="alternateBounds" />
          </mxGeometry>
        </mxCell>
        <mxCell id="_ojp3V_NxjRKTb740ofn-110" value="" style="shape=partialRectangle;html=1;whiteSpace=wrap;connectable=0;strokeColor=inherit;overflow=hidden;fillColor=none;top=0;left=0;bottom=0;right=0;pointerEvents=1;fontSize=16;" parent="_ojp3V_NxjRKTb740ofn-108" vertex="1">
          <mxGeometry x="190" width="410" height="70" as="geometry">
            <mxRectangle width="410" height="70" as="alternateBounds" />
          </mxGeometry>
        </mxCell>
        <mxCell id="_ojp3V_NxjRKTb740ofn-111" value="keep/no/filter/germline/check" style="shape=partialRectangle;html=1;whiteSpace=wrap;connectable=0;strokeColor=inherit;overflow=hidden;fillColor=none;top=0;left=0;bottom=0;right=0;pointerEvents=1;fontSize=16;" parent="_ojp3V_NxjRKTb740ofn-108" vertex="1">
          <mxGeometry x="600" width="200" height="70" as="geometry">
            <mxRectangle width="200" height="70" as="alternateBounds" />
          </mxGeometry>
        </mxCell>
        <mxCell id="_ojp3V_NxjRKTb740ofn-112" value="" style="shape=tableRow;horizontal=0;startSize=0;swimlaneHead=0;swimlaneBody=0;strokeColor=inherit;top=0;left=0;bottom=0;right=0;collapsible=0;dropTarget=0;fillColor=none;points=[[0,0.5],[1,0.5]];portConstraint=eastwest;fontSize=16;" parent="_ojp3V_NxjRKTb740ofn-3" vertex="1">
          <mxGeometry y="2060" width="800" height="80" as="geometry" />
        </mxCell>
        <mxCell id="_ojp3V_NxjRKTb740ofn-113" value="tissue" style="shape=partialRectangle;html=1;whiteSpace=wrap;connectable=0;strokeColor=inherit;overflow=hidden;fillColor=none;top=0;left=0;bottom=0;right=0;pointerEvents=1;fontSize=16;" parent="_ojp3V_NxjRKTb740ofn-112" vertex="1">
          <mxGeometry width="190" height="80" as="geometry">
            <mxRectangle width="190" height="80" as="alternateBounds" />
          </mxGeometry>
        </mxCell>
        <mxCell id="_ojp3V_NxjRKTb740ofn-114" value="" style="shape=partialRectangle;html=1;whiteSpace=wrap;connectable=0;strokeColor=inherit;overflow=hidden;fillColor=none;top=0;left=0;bottom=0;right=0;pointerEvents=1;fontSize=16;" parent="_ojp3V_NxjRKTb740ofn-112" vertex="1">
          <mxGeometry x="190" width="410" height="80" as="geometry">
            <mxRectangle width="410" height="80" as="alternateBounds" />
          </mxGeometry>
        </mxCell>
        <mxCell id="_ojp3V_NxjRKTb740ofn-115" value="Positive/Warning/Negative/no" style="shape=partialRectangle;html=1;whiteSpace=wrap;connectable=0;strokeColor=inherit;overflow=hidden;fillColor=none;top=0;left=0;bottom=0;right=0;pointerEvents=1;fontSize=16;" parent="_ojp3V_NxjRKTb740ofn-112" vertex="1">
          <mxGeometry x="600" width="200" height="80" as="geometry">
            <mxRectangle width="200" height="80" as="alternateBounds" />
          </mxGeometry>
        </mxCell>
        <mxCell id="_ojp3V_NxjRKTb740ofn-116" value="" style="shape=tableRow;horizontal=0;startSize=0;swimlaneHead=0;swimlaneBody=0;strokeColor=inherit;top=0;left=0;bottom=0;right=0;collapsible=0;dropTarget=0;fillColor=none;points=[[0,0.5],[1,0.5]];portConstraint=eastwest;fontSize=16;" parent="_ojp3V_NxjRKTb740ofn-3" vertex="1">
          <mxGeometry y="2140" width="800" height="70" as="geometry" />
        </mxCell>
        <mxCell id="_ojp3V_NxjRKTb740ofn-117" value="Passport" style="shape=partialRectangle;html=1;whiteSpace=wrap;connectable=0;strokeColor=inherit;overflow=hidden;fillColor=none;top=0;left=0;bottom=0;right=0;pointerEvents=1;fontSize=16;" parent="_ojp3V_NxjRKTb740ofn-116" vertex="1">
          <mxGeometry width="190" height="70" as="geometry">
            <mxRectangle width="190" height="70" as="alternateBounds" />
          </mxGeometry>
        </mxCell>
        <mxCell id="_ojp3V_NxjRKTb740ofn-118" value="" style="shape=partialRectangle;html=1;whiteSpace=wrap;connectable=0;strokeColor=inherit;overflow=hidden;fillColor=none;top=0;left=0;bottom=0;right=0;pointerEvents=1;fontSize=16;" parent="_ojp3V_NxjRKTb740ofn-116" vertex="1">
          <mxGeometry x="190" width="410" height="70" as="geometry">
            <mxRectangle width="410" height="70" as="alternateBounds" />
          </mxGeometry>
        </mxCell>
        <mxCell id="_ojp3V_NxjRKTb740ofn-119" value="Pass/False" style="shape=partialRectangle;html=1;whiteSpace=wrap;connectable=0;strokeColor=inherit;overflow=hidden;fillColor=none;top=0;left=0;bottom=0;right=0;pointerEvents=1;fontSize=16;" parent="_ojp3V_NxjRKTb740ofn-116" vertex="1">
          <mxGeometry x="600" width="200" height="70" as="geometry">
            <mxRectangle width="200" height="70" as="alternateBounds" />
          </mxGeometry>
        </mxCell>
        <mxCell id="_ojp3V_NxjRKTb740ofn-104" value="" style="shape=tableRow;horizontal=0;startSize=0;swimlaneHead=0;swimlaneBody=0;strokeColor=inherit;top=0;left=0;bottom=0;right=0;collapsible=0;dropTarget=0;fillColor=none;points=[[0,0.5],[1,0.5]];portConstraint=eastwest;fontSize=16;" parent="_ojp3V_NxjRKTb740ofn-3" vertex="1">
          <mxGeometry y="2210" width="800" height="70" as="geometry" />
        </mxCell>
        <mxCell id="_ojp3V_NxjRKTb740ofn-105" value="hotspot" style="shape=partialRectangle;html=1;whiteSpace=wrap;connectable=0;strokeColor=inherit;overflow=hidden;fillColor=none;top=0;left=0;bottom=0;right=0;pointerEvents=1;fontSize=16;" parent="_ojp3V_NxjRKTb740ofn-104" vertex="1">
          <mxGeometry width="190" height="70" as="geometry">
            <mxRectangle width="190" height="70" as="alternateBounds" />
          </mxGeometry>
        </mxCell>
        <mxCell id="_ojp3V_NxjRKTb740ofn-106" value="" style="shape=partialRectangle;html=1;whiteSpace=wrap;connectable=0;strokeColor=inherit;overflow=hidden;fillColor=none;top=0;left=0;bottom=0;right=0;pointerEvents=1;fontSize=16;" parent="_ojp3V_NxjRKTb740ofn-104" vertex="1">
          <mxGeometry x="190" width="410" height="70" as="geometry">
            <mxRectangle width="410" height="70" as="alternateBounds" />
          </mxGeometry>
        </mxCell>
        <mxCell id="_ojp3V_NxjRKTb740ofn-107" value="Pass/False" style="shape=partialRectangle;html=1;whiteSpace=wrap;connectable=0;strokeColor=inherit;overflow=hidden;fillColor=none;top=0;left=0;bottom=0;right=0;pointerEvents=1;fontSize=16;" parent="_ojp3V_NxjRKTb740ofn-104" vertex="1">
          <mxGeometry x="600" width="200" height="70" as="geometry">
            <mxRectangle width="200" height="70" as="alternateBounds" />
          </mxGeometry>
        </mxCell>
        <mxCell id="_ojp3V_NxjRKTb740ofn-128" value="" style="shape=tableRow;horizontal=0;startSize=0;swimlaneHead=0;swimlaneBody=0;strokeColor=inherit;top=0;left=0;bottom=0;right=0;collapsible=0;dropTarget=0;fillColor=none;points=[[0,0.5],[1,0.5]];portConstraint=eastwest;fontSize=16;" parent="_ojp3V_NxjRKTb740ofn-3" vertex="1">
          <mxGeometry y="2280" width="800" height="70" as="geometry" />
        </mxCell>
        <mxCell id="_ojp3V_NxjRKTb740ofn-129" value="Freq" style="shape=partialRectangle;html=1;whiteSpace=wrap;connectable=0;strokeColor=inherit;overflow=hidden;fillColor=none;top=0;left=0;bottom=0;right=0;pointerEvents=1;fontSize=16;" parent="_ojp3V_NxjRKTb740ofn-128" vertex="1">
          <mxGeometry width="190" height="70" as="geometry">
            <mxRectangle width="190" height="70" as="alternateBounds" />
          </mxGeometry>
        </mxCell>
        <mxCell id="_ojp3V_NxjRKTb740ofn-130" value="" style="shape=partialRectangle;html=1;whiteSpace=wrap;connectable=0;strokeColor=inherit;overflow=hidden;fillColor=none;top=0;left=0;bottom=0;right=0;pointerEvents=1;fontSize=16;" parent="_ojp3V_NxjRKTb740ofn-128" vertex="1">
          <mxGeometry x="190" width="410" height="70" as="geometry">
            <mxRectangle width="410" height="70" as="alternateBounds" />
          </mxGeometry>
        </mxCell>
        <mxCell id="_ojp3V_NxjRKTb740ofn-131" value="Pass/Low/False" style="shape=partialRectangle;html=1;whiteSpace=wrap;connectable=0;strokeColor=inherit;overflow=hidden;fillColor=none;top=0;left=0;bottom=0;right=0;pointerEvents=1;fontSize=16;" parent="_ojp3V_NxjRKTb740ofn-128" vertex="1">
          <mxGeometry x="600" width="200" height="70" as="geometry">
            <mxRectangle width="200" height="70" as="alternateBounds" />
          </mxGeometry>
        </mxCell>
        <mxCell id="_ojp3V_NxjRKTb740ofn-124" value="" style="shape=tableRow;horizontal=0;startSize=0;swimlaneHead=0;swimlaneBody=0;strokeColor=inherit;top=0;left=0;bottom=0;right=0;collapsible=0;dropTarget=0;fillColor=none;points=[[0,0.5],[1,0.5]];portConstraint=eastwest;fontSize=16;" parent="_ojp3V_NxjRKTb740ofn-3" vertex="1">
          <mxGeometry y="2350" width="800" height="70" as="geometry" />
        </mxCell>
        <mxCell id="_ojp3V_NxjRKTb740ofn-125" value="Strand" style="shape=partialRectangle;html=1;whiteSpace=wrap;connectable=0;strokeColor=inherit;overflow=hidden;fillColor=none;top=0;left=0;bottom=0;right=0;pointerEvents=1;fontSize=16;" parent="_ojp3V_NxjRKTb740ofn-124" vertex="1">
          <mxGeometry width="190" height="70" as="geometry">
            <mxRectangle width="190" height="70" as="alternateBounds" />
          </mxGeometry>
        </mxCell>
        <mxCell id="_ojp3V_NxjRKTb740ofn-126" value="" style="shape=partialRectangle;html=1;whiteSpace=wrap;connectable=0;strokeColor=inherit;overflow=hidden;fillColor=none;top=0;left=0;bottom=0;right=0;pointerEvents=1;fontSize=16;" parent="_ojp3V_NxjRKTb740ofn-124" vertex="1">
          <mxGeometry x="190" width="410" height="70" as="geometry">
            <mxRectangle width="410" height="70" as="alternateBounds" />
          </mxGeometry>
        </mxCell>
        <mxCell id="_ojp3V_NxjRKTb740ofn-127" value="Pass/False" style="shape=partialRectangle;html=1;whiteSpace=wrap;connectable=0;strokeColor=inherit;overflow=hidden;fillColor=none;top=0;left=0;bottom=0;right=0;pointerEvents=1;fontSize=16;" parent="_ojp3V_NxjRKTb740ofn-124" vertex="1">
          <mxGeometry x="600" width="200" height="70" as="geometry">
            <mxRectangle width="200" height="70" as="alternateBounds" />
          </mxGeometry>
        </mxCell>
        <mxCell id="_ojp3V_NxjRKTb740ofn-132" value="" style="shape=tableRow;horizontal=0;startSize=0;swimlaneHead=0;swimlaneBody=0;strokeColor=inherit;top=0;left=0;bottom=0;right=0;collapsible=0;dropTarget=0;fillColor=none;points=[[0,0.5],[1,0.5]];portConstraint=eastwest;fontSize=16;" parent="_ojp3V_NxjRKTb740ofn-3" vertex="1">
          <mxGeometry y="2420" width="800" height="70" as="geometry" />
        </mxCell>
        <mxCell id="_ojp3V_NxjRKTb740ofn-133" value="dbFilter" style="shape=partialRectangle;html=1;whiteSpace=wrap;connectable=0;strokeColor=inherit;overflow=hidden;fillColor=none;top=0;left=0;bottom=0;right=0;pointerEvents=1;fontSize=16;" parent="_ojp3V_NxjRKTb740ofn-132" vertex="1">
          <mxGeometry width="190" height="70" as="geometry">
            <mxRectangle width="190" height="70" as="alternateBounds" />
          </mxGeometry>
        </mxCell>
        <mxCell id="_ojp3V_NxjRKTb740ofn-134" value="" style="shape=partialRectangle;html=1;whiteSpace=wrap;connectable=0;strokeColor=inherit;overflow=hidden;fillColor=none;top=0;left=0;bottom=0;right=0;pointerEvents=1;fontSize=16;" parent="_ojp3V_NxjRKTb740ofn-132" vertex="1">
          <mxGeometry x="190" width="410" height="70" as="geometry">
            <mxRectangle width="410" height="70" as="alternateBounds" />
          </mxGeometry>
        </mxCell>
        <mxCell id="_ojp3V_NxjRKTb740ofn-135" value="Pass/False" style="shape=partialRectangle;html=1;whiteSpace=wrap;connectable=0;strokeColor=inherit;overflow=hidden;fillColor=none;top=0;left=0;bottom=0;right=0;pointerEvents=1;fontSize=16;" parent="_ojp3V_NxjRKTb740ofn-132" vertex="1">
          <mxGeometry x="600" width="200" height="70" as="geometry">
            <mxRectangle width="200" height="70" as="alternateBounds" />
          </mxGeometry>
        </mxCell>
        <mxCell id="_ojp3V_NxjRKTb740ofn-140" value="" style="shape=tableRow;horizontal=0;startSize=0;swimlaneHead=0;swimlaneBody=0;strokeColor=inherit;top=0;left=0;bottom=0;right=0;collapsible=0;dropTarget=0;fillColor=none;points=[[0,0.5],[1,0.5]];portConstraint=eastwest;fontSize=16;" parent="_ojp3V_NxjRKTb740ofn-3" vertex="1">
          <mxGeometry y="2490" width="800" height="70" as="geometry" />
        </mxCell>
        <mxCell id="_ojp3V_NxjRKTb740ofn-141" value="1000g" style="shape=partialRectangle;html=1;whiteSpace=wrap;connectable=0;strokeColor=inherit;overflow=hidden;fillColor=none;top=0;left=0;bottom=0;right=0;pointerEvents=1;fontSize=16;" parent="_ojp3V_NxjRKTb740ofn-140" vertex="1">
          <mxGeometry width="190" height="70" as="geometry">
            <mxRectangle width="190" height="70" as="alternateBounds" />
          </mxGeometry>
        </mxCell>
        <mxCell id="_ojp3V_NxjRKTb740ofn-142" value="" style="shape=partialRectangle;html=1;whiteSpace=wrap;connectable=0;strokeColor=inherit;overflow=hidden;fillColor=none;top=0;left=0;bottom=0;right=0;pointerEvents=1;fontSize=16;" parent="_ojp3V_NxjRKTb740ofn-140" vertex="1">
          <mxGeometry x="190" width="410" height="70" as="geometry">
            <mxRectangle width="410" height="70" as="alternateBounds" />
          </mxGeometry>
        </mxCell>
        <mxCell id="_ojp3V_NxjRKTb740ofn-143" value="Pass/False" style="shape=partialRectangle;html=1;whiteSpace=wrap;connectable=0;strokeColor=inherit;overflow=hidden;fillColor=none;top=0;left=0;bottom=0;right=0;pointerEvents=1;fontSize=16;" parent="_ojp3V_NxjRKTb740ofn-140" vertex="1">
          <mxGeometry x="600" width="200" height="70" as="geometry">
            <mxRectangle width="200" height="70" as="alternateBounds" />
          </mxGeometry>
        </mxCell>
        <mxCell id="_ojp3V_NxjRKTb740ofn-136" value="" style="shape=tableRow;horizontal=0;startSize=0;swimlaneHead=0;swimlaneBody=0;strokeColor=inherit;top=0;left=0;bottom=0;right=0;collapsible=0;dropTarget=0;fillColor=none;points=[[0,0.5],[1,0.5]];portConstraint=eastwest;fontSize=16;" parent="_ojp3V_NxjRKTb740ofn-3" vertex="1">
          <mxGeometry y="2560" width="800" height="70" as="geometry" />
        </mxCell>
        <mxCell id="_ojp3V_NxjRKTb740ofn-137" value="Panel" style="shape=partialRectangle;html=1;whiteSpace=wrap;connectable=0;strokeColor=inherit;overflow=hidden;fillColor=none;top=0;left=0;bottom=0;right=0;pointerEvents=1;fontSize=16;" parent="_ojp3V_NxjRKTb740ofn-136" vertex="1">
          <mxGeometry width="190" height="70" as="geometry">
            <mxRectangle width="190" height="70" as="alternateBounds" />
          </mxGeometry>
        </mxCell>
        <mxCell id="_ojp3V_NxjRKTb740ofn-138" value="" style="shape=partialRectangle;html=1;whiteSpace=wrap;connectable=0;strokeColor=inherit;overflow=hidden;fillColor=none;top=0;left=0;bottom=0;right=0;pointerEvents=1;fontSize=16;" parent="_ojp3V_NxjRKTb740ofn-136" vertex="1">
          <mxGeometry x="190" width="410" height="70" as="geometry">
            <mxRectangle width="410" height="70" as="alternateBounds" />
          </mxGeometry>
        </mxCell>
        <mxCell id="_ojp3V_NxjRKTb740ofn-139" value="Pass/False" style="shape=partialRectangle;html=1;whiteSpace=wrap;connectable=0;strokeColor=inherit;overflow=hidden;fillColor=none;top=0;left=0;bottom=0;right=0;pointerEvents=1;fontSize=16;" parent="_ojp3V_NxjRKTb740ofn-136" vertex="1">
          <mxGeometry x="600" width="200" height="70" as="geometry">
            <mxRectangle width="200" height="70" as="alternateBounds" />
          </mxGeometry>
        </mxCell>
        <mxCell id="_ojp3V_NxjRKTb740ofn-64" value="" style="shape=tableRow;horizontal=0;startSize=0;swimlaneHead=0;swimlaneBody=0;strokeColor=inherit;top=0;left=0;bottom=0;right=0;collapsible=0;dropTarget=0;fillColor=none;points=[[0,0.5],[1,0.5]];portConstraint=eastwest;fontSize=16;" parent="_ojp3V_NxjRKTb740ofn-3" vertex="1">
          <mxGeometry y="2630" width="800" height="70" as="geometry" />
        </mxCell>
        <mxCell id="_ojp3V_NxjRKTb740ofn-65" value="Depth" style="shape=partialRectangle;html=1;whiteSpace=wrap;connectable=0;strokeColor=inherit;overflow=hidden;fillColor=none;top=0;left=0;bottom=0;right=0;pointerEvents=1;fontSize=16;" parent="_ojp3V_NxjRKTb740ofn-64" vertex="1">
          <mxGeometry width="190" height="70" as="geometry">
            <mxRectangle width="190" height="70" as="alternateBounds" />
          </mxGeometry>
        </mxCell>
        <mxCell id="_ojp3V_NxjRKTb740ofn-66" value="" style="shape=partialRectangle;html=1;whiteSpace=wrap;connectable=0;strokeColor=inherit;overflow=hidden;fillColor=none;top=0;left=0;bottom=0;right=0;pointerEvents=1;fontSize=16;" parent="_ojp3V_NxjRKTb740ofn-64" vertex="1">
          <mxGeometry x="190" width="410" height="70" as="geometry">
            <mxRectangle width="410" height="70" as="alternateBounds" />
          </mxGeometry>
        </mxCell>
        <mxCell id="_ojp3V_NxjRKTb740ofn-67" value="Pass/False" style="shape=partialRectangle;html=1;whiteSpace=wrap;connectable=0;strokeColor=inherit;overflow=hidden;fillColor=none;top=0;left=0;bottom=0;right=0;pointerEvents=1;fontSize=16;" parent="_ojp3V_NxjRKTb740ofn-64" vertex="1">
          <mxGeometry x="600" width="200" height="70" as="geometry">
            <mxRectangle width="200" height="70" as="alternateBounds" />
          </mxGeometry>
        </mxCell>
      </root>
    </mxGraphModel>
  </diagram>
</mxfile>
